<svg xmlns="http://www.w3.org/2000/svg" xmlns:xlink="http://www.w3.org/1999/xlink" width="400" height="283" viewBox="0 0 400 283">
  <defs>
    <clipPath id="clip-path">
      <rect id="Rectángulo_458840" data-name="Rectángulo 458840" width="346.709" height="245.713" fill="none"/>
    </clipPath>
    <clipPath id="clip-path-2">
      <rect id="Rectángulo_458839" data-name="Rectángulo 458839" width="346.71" height="245.714" fill="none"/>
    </clipPath>
    <clipPath id="clip-path-3">
      <rect id="Rectángulo_458831" data-name="Rectángulo 458831" width="70.095" height="24.403" fill="none"/>
    </clipPath>
    <clipPath id="clip-path-4">
      <rect id="Rectángulo_458832" data-name="Rectángulo 458832" width="40.014" height="13.929" fill="none"/>
    </clipPath>
    <clipPath id="clip-path-5">
      <rect id="Rectángulo_458833" data-name="Rectángulo 458833" width="34.078" height="11.864" fill="none"/>
    </clipPath>
    <clipPath id="clip-path-6">
      <rect id="Rectángulo_458834" data-name="Rectángulo 458834" width="99.757" height="149.222" fill="none"/>
    </clipPath>
    <clipPath id="clip-path-7">
      <rect id="Rectángulo_458835" data-name="Rectángulo 458835" width="103.19" height="50.559" fill="none"/>
    </clipPath>
    <clipPath id="clip-path-8">
      <rect id="Rectángulo_458836" data-name="Rectángulo 458836" width="100.466" height="85.07" fill="none"/>
    </clipPath>
    <clipPath id="clip-path-9">
      <rect id="Rectángulo_458837" data-name="Rectángulo 458837" width="7.587" height="7.097" fill="none"/>
    </clipPath>
    <clipPath id="clip-path-10">
      <rect id="Rectángulo_458838" data-name="Rectángulo 458838" width="4.7" height="5.618" fill="none"/>
    </clipPath>
  </defs>
  <g id="Grupo_1180109" data-name="Grupo 1180109" transform="translate(-915 -499)">
    <rect id="Rectángulo_403247" data-name="Rectángulo 403247" width="400" height="283" transform="translate(915 499)" fill="#d8e5f6"/>
    <g id="Grupo_1180108" data-name="Grupo 1180108" transform="translate(941.645 517.644)">
      <g id="Grupo_1180107" data-name="Grupo 1180107" clip-path="url(#clip-path)">
        <g id="Grupo_1180106" data-name="Grupo 1180106" transform="translate(0 -0.001)">
          <g id="Grupo_1180105" data-name="Grupo 1180105" clip-path="url(#clip-path-2)">
            <path id="Trazado_997793" data-name="Trazado 997793" d="M346.71,46.07V199.065c0,24.533-20.469,41.081-45.2,44.422a275.132,275.132,0,0,1-39.6,2.213c-5.739-.041-11.845-.193-18.45-.446-5.393-.206-11.119-.478-17.249-.81h0c-12.728-.689-27.2-1.631-44.058-2.763-11.221-.754-26.172-.849-42.4-.627-2.993.042-6.031.093-9.1.153-10.822.214-21.994.535-32.841.87-20.077.62-39.044,1.289-52.614,1.409A44.677,44.677,0,0,1,0,199.065V46.07C0,21.536,20.28.205,45.2,1.648c23.143,1.34,57.182,6.646,92.668,3.4,42.2-3.863,122.307-7.146,163.642-3.4,24.858,2.256,45.2,19.888,45.2,44.422" transform="translate(0 0.004)" fill="#daebe8"/>
            <g id="Grupo_1180083" data-name="Grupo 1180083" transform="translate(204.881 28.619)" opacity="0.4">
              <g id="Grupo_1180082" data-name="Grupo 1180082">
                <g id="Grupo_1180081" data-name="Grupo 1180081" clip-path="url(#clip-path-3)">
                  <path id="Trazado_997794" data-name="Trazado 997794" d="M1329.475,189.65s4.018-7.731,14.185-6.762,8.957,8.718,13.8,7.991,11.62,0,13.072,4.843,7.988,2.179,8.23,6.3-7.5,7.023-16.461,3.39-13.314,2.822-25.9,1.653-14.147-2.622-21.6-1.9-7.274-4.377-3.885-7.767,17.107-3.068,18.56-7.75" transform="translate(-1308.671 -182.803)" fill="#fff"/>
                </g>
              </g>
            </g>
            <g id="Grupo_1180086" data-name="Grupo 1180086" transform="translate(96.082 24.359)" opacity="0.6">
              <g id="Grupo_1180085" data-name="Grupo 1180085">
                <g id="Grupo_1180084" data-name="Grupo 1180084" clip-path="url(#clip-path-4)">
                  <path id="Trazado_997795" data-name="Trazado 997795" d="M625.593,159.494a8.166,8.166,0,0,1,8.1-3.86c5.8.553,5.113,4.977,7.877,4.562s6.633,0,7.462,2.765,4.56,1.244,4.7,3.594-4.284,4.009-9.4,1.935-7.6,1.611-14.786.944-8.076-1.5-12.329-1.082-4.152-2.5-2.218-4.434,9.766-1.751,10.6-4.424" transform="translate(-613.717 -155.586)" fill="#fff"/>
                </g>
              </g>
            </g>
            <g id="Grupo_1180089" data-name="Grupo 1180089" transform="translate(186.779 15.155)" opacity="0.6">
              <g id="Grupo_1180088" data-name="Grupo 1180088">
                <g id="Grupo_1180087" data-name="Grupo 1180087" clip-path="url(#clip-path-5)">
                  <path id="Trazado_997796" data-name="Trazado 997796" d="M1203.157,100.13a6.955,6.955,0,0,1,6.9-3.287c4.943.471,4.354,4.238,6.708,3.885s5.649,0,6.355,2.354,3.884,1.06,4,3.061-3.648,3.414-8,1.648-6.473,1.372-12.592.8-6.878-1.275-10.5-.921-3.536-2.128-1.889-3.776,8.317-1.491,9.023-3.768" transform="translate(-1193.043 -96.802)" fill="#fff"/>
                </g>
              </g>
            </g>
            <path id="Trazado_997797" data-name="Trazado 997797" d="M597.87,347.234c-2.608,2.484-4.172,2.394-5.146,1.372s-.987-2.589,1.62-5.073c4.75-4.525,8.808-4.861,8.808-4.861s-.464,3.971-5.283,8.562" transform="translate(-499.42 -285.65)" fill="#acc9c5"/>
            <path id="Trazado_997798" data-name="Trazado 997798" d="M631.805,485.854c-1.663,3.194-3.173,3.615-4.425,2.964s-1.772-2.131-.109-5.325c3.03-5.818,6.761-7.45,6.761-7.45s.846,3.908-2.228,9.811" transform="translate(-528.181 -401.515)" fill="#acc9c5"/>
            <path id="Trazado_997799" data-name="Trazado 997799" d="M466.333,519.91l-.675.1c-.015-.1-1.587-10.564-8.561-24.791-6.436-13.127-18.918-32.238-41.842-48.735l.4-.553c23.05,16.588,35.6,35.811,42.069,49.016,7.014,14.317,8.6,24.861,8.611,24.966" transform="translate(-350.244 -376.114)" fill="#acc9c5"/>
            <path id="Trazado_997800" data-name="Trazado 997800" d="M537.465,333.525l-.643-.227c8.239-23.341-5.369-46.146-5.508-46.373l.582-.354c.14.23,13.917,23.3,5.568,46.954" transform="translate(-448.133 -241.706)" fill="#acc9c5"/>
            <path id="Trazado_997801" data-name="Trazado 997801" d="M422.263,523.951a24.134,24.134,0,0,1-12.693-.626l.242-.637a22.882,22.882,0,0,0,15.278-.357l.261.63a20,20,0,0,1-3.087.99" transform="translate(-345.449 -440.556)" fill="#acc9c5"/>
            <path id="Trazado_997802" data-name="Trazado 997802" d="M338.32,404.42c4.253,2.344,4.966,4.043,4.285,5.279s-2.5,1.541-6.752-.8c-7.748-4.27-10.259-8.572-10.259-8.572s4.865-.237,12.727,4.095" transform="translate(-274.619 -337.648)" fill="#acc9c5"/>
            <path id="Trazado_997803" data-name="Trazado 997803" d="M345.7,508c4.762.952,5.954,2.358,5.678,3.742s-1.918,2.223-6.68,1.271c-8.675-1.735-12.366-5.079-12.366-5.079s4.568-1.693,13.369.067" transform="translate(-280.304 -427.796)" fill="#acc9c5"/>
            <path id="Trazado_997804" data-name="Trazado 997804" d="M481.87,414.149c1.6,3.226,1.051,4.694-.214,5.321s-2.766.176-4.366-3.051c-2.915-5.877-2.034-9.853-2.034-9.853s3.656,1.619,6.613,7.582" transform="translate(-400.747 -342.915)" fill="#acc9c5"/>
            <path id="Trazado_997805" data-name="Trazado 997805" d="M495.86,210.31c2.18,4.34,1.806,6.144.544,6.778s-2.932-.144-5.112-4.484c-3.971-7.905-3.606-12.874-3.606-12.874s4.145,2.558,8.174,10.579" transform="translate(-411.328 -168.461)" fill="#acc9c5"/>
            <path id="Trazado_997806" data-name="Trazado 997806" d="M410.971,744.546s-63.319-128.5-97.542-110.009,61.508,76.706,78.755,114.7Z" transform="translate(-258.176 -533.66)" fill="#acc9c5"/>
            <path id="Trazado_997807" data-name="Trazado 997807" d="M291.015,892.387s-66.186-83.818-93.162-63.979,59.48,45.778,77.807,70.823Z" transform="translate(-162.516 -696.152)" fill="#92bcb5"/>
            <path id="Trazado_997808" data-name="Trazado 997808" d="M370.025,965.389c-12.342-17.527-31.675-32.178-45.719-41.383A256.855,256.855,0,0,0,296.5,908.068l.365-.775a257.762,257.762,0,0,1,27.91,16c14.107,9.245,33.529,23.969,45.949,41.606Z" transform="translate(-250.082 -765.249)" fill="#68a1bf"/>
            <path id="Trazado_997809" data-name="Trazado 997809" d="M236.879,1115.966c-14,.2-27.659.583-41.938,1.023a14.662,14.662,0,0,1-.77-1.652c-8.061-8.314-6.659-7.075-24.783-3.857s-13.947-20.3-29.37-24.731c-15.583-4.465-32.028-17.129-21.571-29.552,10.5-12.453,21.145-8.024,33.429-6.1,8.377,1.306,21.128-12.122,32.582-13.645,7.139-.943,11.289,2.9,14.9,9.018,0,0,0,0,0,0,7.405,12.656,12.653,15.382,19.239,16.2h0c2.2.274,4.415.328,7.555.506,5,.3,15.127,1.443,18.853,4.778,16.349,14.614,9.18,35.133-8.132,48.011" transform="translate(-97.128 -874.908)" fill="#ccd39c"/>
            <path id="Trazado_997810" data-name="Trazado 997810" d="M238.034,1223.874l.646-.834c-.368-.285-37.738-28.576-118.758-35.863l-.095,1.051c80.715,7.26,117.84,35.363,118.207,35.646" transform="translate(-101.067 -1001.316)" fill="#c2c68e"/>
            <path id="Trazado_997811" data-name="Trazado 997811" d="M562.159,1108.05c11.343-8.922,13.734-16.444,13.831-16.759l-1.009-.308c-.023.074-2.421,7.544-13.475,16.238Z" transform="translate(-473.598 -920.181)" fill="#c2c68e"/>
            <path id="Trazado_997812" data-name="Trazado 997812" d="M518.144,1084.1c3.359-5.1,3.581-12.756.644-22.14a70.5,70.5,0,0,0-5.462-12.695l-.913.529c.127.219,12.572,22,4.849,33.726Z" transform="translate(-432.191 -884.999)" fill="#c2c68e"/>
            <path id="Trazado_997813" data-name="Trazado 997813" d="M221,1237.852c1.344-.981,2.079-1.629,2.112-1.658l-.7-.786c-.154.138-15.637,13.749-37.017,11.681l-.1,1.05c17.228,1.667,30.7-6.63,35.71-10.286" transform="translate(-156.28 -1041.996)" fill="#c2c68e"/>
            <path id="Trazado_997814" data-name="Trazado 997814" d="M331.864,1290.194a24.9,24.9,0,0,0,7.557-14.079,18.444,18.444,0,0,0-.078-6.689l-1.024.255c.025.1,2.422,10.366-7.193,19.759Z" transform="translate(-279.286 -1070.687)" fill="#c2c68e"/>
            <path id="Trazado_997815" data-name="Trazado 997815" d="M152.782,1012.164c-3.355-1.405-3.906-2.889-3.355-4.2s2-1.963,5.35-.557c6.111,2.56,8.066,6.178,8.066,6.178s-3.862,1.181-10.061-1.417" transform="translate(-125.877 -849.02)" fill="#acc9c5"/>
            <g id="Grupo_1180092" data-name="Grupo 1180092" transform="translate(195.009 62.674)" opacity="0.6">
              <g id="Grupo_1180091" data-name="Grupo 1180091">
                <g id="Grupo_1180090" data-name="Grupo 1180090" clip-path="url(#clip-path-6)">
                  <path id="Trazado_997816" data-name="Trazado 997816" d="M1245.614,548.126s45.584-160.95,88.793-146.94-54.442,101.083-66.227,148.357Z" transform="translate(-1245.613 -400.321)" fill="#acc9c5"/>
                </g>
              </g>
            </g>
            <path id="Trazado_997817" data-name="Trazado 997817" d="M1451.682,849.048s55.778-96.5,86.615-80.057-54.561,56.2-69.73,84.821Z" transform="translate(-1224.411 -647.01)" fill="#ccd39c"/>
            <path id="Trazado_997818" data-name="Trazado 997818" d="M1507.571,925.667c10.117-19.953,27.884-37.986,41.007-49.6a268.163,268.163,0,0,1,26.325-20.633l-.493-.745a269.05,269.05,0,0,0-26.424,20.709c-13.182,11.665-31.032,29.786-41.212,49.865Z" transform="translate(-1270.878 -720.88)" fill="#c2c68e"/>
            <path id="Trazado_997819" data-name="Trazado 997819" d="M1445.79,1166.737a14.249,14.249,0,0,0-8.107,6.334v0c-4.789,7.192-6.126,17.117-17.4,15.113-13.3-2.372-14.486-3.508-18.769.561a21.425,21.425,0,0,0-3.728,4.761c-.047.078-7.815.012-18.48-.4-9.576-.365-17.032-.81-17.25-.81-14.474-10.571-22.208-28.714-7.389-41.947,1.849-1.655,4.811-2.377,7.281-2.932,15.017-3.369,20.714,2.784,30.971-13.41v0c1.89-2.978,3.143-5.853,6.148-8.1,11.388-8.491,27.087,11.317,36.455,9.862,10.665-1.657,19.906-5.5,29.012,5.323,9.07,10.783-5.248,21.786-18.742,25.637" transform="translate(-1135.842 -947.854)" fill="#acc9c5"/>
            <g id="Grupo_1180095" data-name="Grupo 1180095" transform="translate(227.72 177.566)" opacity="0.5">
              <g id="Grupo_1180094" data-name="Grupo 1180094">
                <g id="Grupo_1180093" data-name="Grupo 1180093" clip-path="url(#clip-path-7)">
                  <path id="Trazado_997820" data-name="Trazado 997820" d="M1455.11,1285.932l-.56-.725c.319-.247,32.777-24.78,103.109-31.053l.081.913c-70.068,6.249-102.313,30.62-102.631,30.865" transform="translate(-1454.55 -1235.373)" fill="#68a1bf"/>
                  <path id="Trazado_997821" data-name="Trazado 997821" d="M1662.035,1185.136c-9.841-7.752-11.911-14.283-11.995-14.557l.876-.267c.02.065,2.1,6.55,11.686,14.1Z" transform="translate(-1619.435 -1164.657)" fill="#68a1bf"/>
                  <path id="Trazado_997822" data-name="Trazado 997822" d="M1728.507,1164.424c-2.912-4.429-3.1-11.075-.545-19.219a61.219,61.219,0,0,1,4.749-11.016l.792.459c-.11.19-10.927,19.088-4.231,29.273Z" transform="translate(-1683.65 -1134.189)" fill="#68a1bf"/>
                  <path id="Trazado_997823" data-name="Trazado 997823" d="M1848.947,1297.947c-1.167-.853-1.8-1.415-1.833-1.441l.611-.682c.133.12,13.565,11.945,32.125,10.164l.087.911c-14.955,1.436-26.645-5.775-30.991-8.952" transform="translate(-1785.655 -1270.519)" fill="#68a1bf"/>
                  <path id="Trazado_997824" data-name="Trazado 997824" d="M1889.571,1343.412a21.612,21.612,0,0,1-6.551-12.226,16,16,0,0,1,.072-5.807l.889.222c-.022.089-2.109,9,6.231,17.156Z" transform="translate(-1815.757 -1295.447)" fill="#68a1bf"/>
                </g>
              </g>
            </g>
            <path id="Trazado_997825" data-name="Trazado 997825" d="M1432.039,533.2c.4-4.214,1.862-5.34,3.514-5.182s2.871,1.54,2.468,5.754c-.734,7.677-4.081,11.1-4.081,11.1s-2.647-3.885-1.9-11.674" transform="translate(-1207.732 -445.339)" fill="#acc9c5"/>
            <path id="Trazado_997826" data-name="Trazado 997826" d="M1910.716,1108.162c4.436-.761,6,.422,6.3,2.161s-.779,3.375-5.216,4.136c-8.082,1.387-12.528-1.092-12.528-1.092s3.248-3.8,11.447-5.205" transform="translate(-1601.925 -934.472)" fill="#acc9c5"/>
            <path id="Trazado_997827" data-name="Trazado 997827" d="M1866.154,1047.32c2.39-3.495,4.211-3.774,5.581-2.838s1.769,2.736-.621,6.23c-4.354,6.366-8.939,7.746-8.939,7.746s-.439-4.68,3.979-11.139" transform="translate(-1570.628 -880.572)" fill="#acc9c5"/>
            <path id="Trazado_997828" data-name="Trazado 997828" d="M512.692,349s2.792,23.918-9.348,24.569c-31.011,1.662-48.072,23.77-29.979,27.2,8.049,1.525-3.335,10.64-20.282,20.32-20,11.425-19.2,47.579,15.149,51.739s57.144-22.037,75.1-9.882,47.987-14.172,63.33-13.248,27.788,3.119,32.251-9.847-36.862-16.087-34.743-37.107-37.15-23.135-28.514-26.918c31.01-13.585-8.489-23.794-19.111-39.655C549.389,325.486,512.692,349,512.692,349" transform="translate(-370.973 -281.19)" fill="#331832"/>
            <path id="Trazado_997829" data-name="Trazado 997829" d="M908.943,821.232c-56.322-2.148-54.98-5.186-112.807-4.046-.808-29.978.778-73.21,11.686-101.307-2.812-1.834-16.419-10.7-18.818-12.258,0-.016.371-.57.4-.6,1.27-1.781,5.742-7.234,15.742-12.019.651,0,12.782-7.58,39.607-8.11a68.845,68.845,0,0,1,13.714,1.286c.119.059,6.752,1.139,10.085,2.184,11.722,3.651,19.657,7.449,24.96,10.694,8.117,4.968,9.926,8.437,9.994,8.505v0h0c0,.2-5.621,11.507-13.577,15.145.241.725,3.531,11.433,3.531,11.5,8.768,29.3,15.143,58.568,15.486,89.021" transform="translate(-665.481 -575.975)" fill="#73b3ce"/>
            <path id="Trazado_997830" data-name="Trazado 997830" d="M788.6,807.194c-.849,2.465,5.554,7.078,14.3,10.305s16.527,3.844,17.376,1.38-5.554-7.078-14.3-10.305-16.527-3.844-17.376-1.38" transform="translate(-665.072 -679.548)" fill="#331832"/>
            <path id="Trazado_997831" data-name="Trazado 997831" d="M1147.54,417.277s-.256,3.355,2.644,9.693c4.243,9.274-6.208,15.061-9.479,12.737-.4-.287-2.527-16.859-2.527-16.859l3.213-2.661Z" transform="translate(-959.987 -351.949)" fill="#331832"/>
            <path id="Trazado_997832" data-name="Trazado 997832" d="M1111.912,433.14s10.37,7.986,8.787,18.06c0,0,4.277-6.449,4.061-8.572s-2.78-9.51-2.78-9.51Z" transform="translate(-937.834 -365.311)" fill="#331832"/>
            <path id="Trazado_997833" data-name="Trazado 997833" d="M1139.2,487.7a.361.361,0,0,1-.057-.717c.023,0,2.244-.379,3.053-1.821a.361.361,0,1,1,.63.354c-.981,1.748-3.463,2.163-3.568,2.181-.019,0-.038,0-.057,0" transform="translate(-960.547 -409.052)" fill="#ec865c"/>
            <path id="Trazado_997834" data-name="Trazado 997834" d="M1086.188,496.47c-2.755-.7-5.552-1.693-7.642-5.009l-6.747-12.607-1.7-.8-11.172-17.736,4.511,19.488,2.709,11.7s.831,3.013-3.953,4.168c0,0-3.441,10.062,2.907,10.779,10.346,1.168,21.106-9.973,21.086-9.978" transform="translate(-893.146 -388.25)" fill="#ffb27d"/>
            <path id="Trazado_997835" data-name="Trazado 997835" d="M1096.272,575.494q.021.164.031.33c.527,6.428-5.8,10.462-5.8,10.462l-.047-.028-2.709-11.7c1.958-1.087,4.8-2.334,6.661-1.753a2.809,2.809,0,0,1,1.869,2.687" transform="translate(-917.448 -483.005)" fill="#e9845c"/>
            <path id="Trazado_997836" data-name="Trazado 997836" d="M958.314,380.1c-5.478.859-10.861-1.3-14.984-5.437a24,24,0,0,1-3.568-4.6,27.526,27.526,0,0,1-3.552-9.911c-1.978-12.618,4.709-24.148,14.936-25.753s20.123,7.325,22.1,19.944S968.542,378.5,958.314,380.1" transform="translate(-789.348 -281.893)" fill="#ffb27d"/>
            <path id="Trazado_997837" data-name="Trazado 997837" d="M1129.01,438.684c-1.784,2.332-4.685,3-6.48,1.486s-1.8-4.627-.021-6.959,4.685-3,6.48-1.486,1.8,4.627.021,6.959" transform="translate(-945.65 -363.452)" fill="#ffb27d"/>
            <path id="Trazado_997838" data-name="Trazado 997838" d="M1009.147,556.343a21.973,21.973,0,0,0,12.327-4.06s.093,5.6-5.222,6.816a7.027,7.027,0,0,1-7.1-2.756" transform="translate(-851.158 -465.819)" fill="#fff"/>
            <path id="Trazado_997839" data-name="Trazado 997839" d="M1043.1,476a.427.427,0,0,1-.172-.79,4.617,4.617,0,0,1,5.644.361.43.43,0,0,1,.078.6.468.468,0,0,1-.6.078,7.3,7.3,0,0,0-4.688-.3.426.426,0,0,1-.264.057" transform="translate(-879.476 -400.135)" fill="#080435"/>
            <path id="Trazado_997840" data-name="Trazado 997840" d="M948.371,498.995a.426.426,0,0,1-.46-.665,4.617,4.617,0,0,1,5.356-1.817.43.43,0,0,1,.3.523.468.468,0,0,1-.523.3,7.3,7.3,0,0,0-4.45,1.5.427.427,0,0,1-.223.153" transform="translate(-799.437 -418.58)" fill="#080435"/>
            <path id="Trazado_997841" data-name="Trazado 997841" d="M1046.769,504.069a3.458,3.458,0,0,1-1.7-.385.584.584,0,0,1,.6-1c.088.049,1.9,1.005,4.846-1.425a.584.584,0,1,1,.743.9,7.1,7.1,0,0,1-4.481,1.913" transform="translate(-881.215 -422.668)" fill="#080435"/>
            <path id="Trazado_997842" data-name="Trazado 997842" d="M966.288,526.717a3.461,3.461,0,0,1-1.7-.385.584.584,0,0,1,.6-1c.092.051,1.9,1,4.845-1.425a.584.584,0,1,1,.743.9,7.1,7.1,0,0,1-4.481,1.912" transform="translate(-813.333 -441.77)" fill="#080435"/>
            <path id="Trazado_997843" data-name="Trazado 997843" d="M1387.873,817.625s-6.069,11.315-13.58,15.145l5.007,18.359-16.022-4.172,1-20.529,18.693-10.681Z" transform="translate(-1149.847 -688.035)" fill="#92a5e6"/>
            <path id="Trazado_997844" data-name="Trazado 997844" d="M604.315,823.722s-41.972,47.883-36.253,59.584,27.153,19.564,47.066-9.48c11.888-17.34,9.9-52.036-10.812-50.1" transform="translate(-478.676 -694.696)" fill="#ffb27d"/>
            <path id="Trazado_997845" data-name="Trazado 997845" d="M834.611,279.858s4.461,6.676,17.942,4.191c9.846-1.815,16.178,1.894,16.9,9.888s34.85,2.735,34.85,2.735,7.648-5.023-13.955-13.449c-9.227-3.6-19.28-36.508-54.321-24.035-19.843,7.063-25.1,24.374-16.431,33.85,10.487,11.465-7.732,16.071-7.732,16.071l21.285,1.636s-4.513-9.268-1.526-16.24-.945-8.406,2.985-14.647" transform="translate(-684.763 -216.241)" fill="#331832"/>
            <path id="Trazado_997846" data-name="Trazado 997846" d="M1516.709,915.1s16.948,23.217,16.308,32.357-27.57-13.221-27.57-13.221Z" transform="translate(-1269.759 -771.837)" fill="#ffb27d"/>
            <path id="Trazado_997847" data-name="Trazado 997847" d="M736.811,558.528s-26.34-26.094-54.367-10.284c-29.32,16.541-6.035,62.884,25.78,81.863s40.049,26.708,46.813,24.8,97.294-83.6,62.576-128.515c-24.911-32.23-68.173-23.6-80.8,32.136" transform="translate(-564.274 -428.209)" fill="#ef8062"/>
            <path id="Trazado_997848" data-name="Trazado 997848" d="M1347.264,590.194a23.873,23.873,0,0,0-18.654-16.461c-15.246-2.907-22.428,4.24-19.164,8.664s13.866.249,18.522,6.58,20.553,13.4,19.3,1.217" transform="translate(-1103.79 -483.341)" fill="#ffc9bc"/>
            <g id="Grupo_1180098" data-name="Grupo 1180098" transform="translate(112.215 134.406)" opacity="0.3">
              <g id="Grupo_1180097" data-name="Grupo 1180097">
                <g id="Grupo_1180096" data-name="Grupo 1180096" clip-path="url(#clip-path-8)">
                  <path id="Trazado_997849" data-name="Trazado 997849" d="M737.505,877.33c-2.385-3.389-11.063-21.3-16.863-18.537-7.825,3.731-3.011,28.282,7.435,41.364s48.034,45.771,63.947,43.282c8.044-1.258,26.08-16.613,25.178-26.365-2.715-29.367-36.412-1.356-44.083-13.216s-28.684-16.682-35.614-26.529" transform="translate(-716.768 -858.505)" fill="#d05f47"/>
                </g>
              </g>
            </g>
            <path id="Trazado_997850" data-name="Trazado 997850" d="M641.839,1108.007s-33.188-10.14-48.433-13.3c-13.661-2.828-23.732,2.037-22.789,16.577.7,10.762,16.434,15.313,39.721,16.792s47.413-1.185,47.413-1.185c1.208-3.841-15.911-18.888-15.911-18.888" transform="translate(-481.231 -922.679)" fill="#ffb27d"/>
            <path id="Trazado_997851" data-name="Trazado 997851" d="M1002.31,1116.826c-8.531.154-18.7-2.144-18.7-2.144s-3.575-14.3-2.419-15.695c4.463-5.386,12.969-9.6,15.919-12.56,1.279-1.284,5.877-5.3,7.319-4.2,1.254.963-.887,5.9-2.187,8.127,11.753-2.105,29.85.108,5.542,6.317,0,.013.007.027.01.04,2.516-.4,19.69-2.55,18.908,1.031-.69,3.16-13.821,5.1-17.953,5.8q0,.059.007.118c4.262-.348,17.092-1.827,15.468.961-2.039,3.5-15.419,6.873-15.419,6.873s13.944-2.842,12.086,1.487c-1.267,2.952-12.94,3.491-16.989,3.873a6.751,6.751,0,0,1-1.6-.029" transform="translate(-827.387 -912.639)" fill="#ffb27d"/>
            <path id="Trazado_997852" data-name="Trazado 997852" d="M1071.841,882.77c7.74,3.59,17.967,5.6,17.967,5.6s9.051-11.633,8.558-13.377c-1.9-6.73-7.981-14.023-9.482-17.924-.651-1.691-3.231-7.226-5-6.8-1.536.374-1.574,5.755-1.285,8.317-9.9-6.677-27.345-11.97-7.623,3.537l-.026.033c-2.14-1.383-16.978-10.292-17.711-6.7-.646,3.169,10.581,10.249,14.076,12.561l-.054.1c-3.758-2.041-14.894-8.581-14.536-5.374.45,4.025,11.324,12.52,11.324,12.52s-11.6-8.237-11.656-3.526c-.035,3.212,10.424,8.425,13.972,10.411a6.75,6.75,0,0,0,1.472.618" transform="translate(-891.01 -717.134)" fill="#ffb27d"/>
            <path id="Trazado_997853" data-name="Trazado 997853" d="M667.327,1096.594a.306.306,0,0,1-.056-.005,34.952,34.952,0,0,0-10.343-.274.245.245,0,1,1-.064-.485,35.556,35.556,0,0,1,10.519.281.245.245,0,0,1-.056.484" transform="translate(-553.848 -924.039)" fill="#e9845c"/>
            <path id="Trazado_997854" data-name="Trazado 997854" d="M1205.666,984.778s32.037,1.2,45.253,5.666c12.955,4.381,21.138,16.838,13.533,23.944-7.88,7.363-19.724,5.065-41.621-3s-32.333-12.942-32.333-12.942c.447-4,15.167-13.671,15.167-13.671" transform="translate(-1004.118 -830.604)" fill="#ffb27d"/>
            <path id="Trazado_997855" data-name="Trazado 997855" d="M1595.922,1029.018a.243.243,0,0,1-.156-.057,28.443,28.443,0,0,0-5.863-3.36.245.245,0,0,1,.19-.453,28.468,28.468,0,0,1,5.986,3.436.243.243,0,0,1,.033.343.24.24,0,0,1-.189.089" transform="translate(-1340.866 -864.638)" fill="#e9845c"/>
            <g id="Grupo_1180101" data-name="Grupo 1180101" transform="translate(170.796 79.035)" opacity="0.7">
              <g id="Grupo_1180100" data-name="Grupo 1180100">
                <g id="Grupo_1180099" data-name="Grupo 1180099" clip-path="url(#clip-path-9)">
                  <path id="Trazado_997856" data-name="Trazado 997856" d="M1090.962,508.583c-.208-2.642,2.115-3.512,3.72-3.72a3.267,3.267,0,0,1,3.854,3.209c0,2.418-1.622,4.139-3.668,3.813-1.6-.254-3.72-.935-3.906-3.3" transform="translate(-1090.949 -504.827)" fill="#ef8062"/>
                </g>
              </g>
            </g>
            <g id="Grupo_1180104" data-name="Grupo 1180104" transform="translate(150.414 87.153)" opacity="0.5">
              <g id="Grupo_1180103" data-name="Grupo 1180103">
                <g id="Grupo_1180102" data-name="Grupo 1180102" clip-path="url(#clip-path-10)">
                  <path id="Trazado_997857" data-name="Trazado 997857" d="M964.518,562.246c-.06.02-.121.039-.184.055a23.988,23.988,0,0,1-3.568-4.6,2.988,2.988,0,0,1,.512-.6c1.146-1.022,2.693-.021,3.418,1.175,1.084,1.789,1.02,3.566-.178,3.963" transform="translate(-960.766 -556.684)" fill="#ef8062"/>
                </g>
              </g>
            </g>
          </g>
        </g>
      </g>
    </g>
  </g>
</svg>
