<svg xmlns="http://www.w3.org/2000/svg" xmlns:xlink="http://www.w3.org/1999/xlink" width="1030" height="490" viewBox="0 0 1030 490">
  <defs>
    <clipPath id="clip-path">
      <path id="Trazado_611005" data-name="Trazado 611005" d="M0,0H1030V489H0Z" transform="translate(0 0)" fill="#e6f3f3"/>
    </clipPath>
  </defs>
  <g id="Grupo_1180326" data-name="Grupo 1180326" transform="translate(-285 -1063.081)">
    <g id="Grupo_1073695" data-name="Grupo 1073695" transform="translate(285 1063.081)">
      <path id="Trazado_608309" data-name="Trazado 608309" d="M0,0H1030V489H0Z" transform="translate(0 0)" fill="#e6f3f3"/>
    </g>
    <path id="Trazado_873852" data-name="Trazado 873852" d="M331.345,230.22l-24.59-44.855h-141.8l-24.59,44.855-14.2,25.907H345.546Z" transform="translate(1036.964 1588.218) rotate(180)" fill="#c2e8e8"/>
    <path id="Trazado_873853" data-name="Trazado 873853" d="M251.639,0,183.073,129.34H320.2Z" transform="translate(1052.607 1537.27) rotate(180)" fill="#d8dde0"/>
    <path id="Trazado_873854" data-name="Trazado 873854" d="M44.968,397.035,0,474.922H402.288L357.32,397.035Z" transform="translate(1002.289 1646.396) rotate(180)" fill="#4e5661"/>
    <path id="Trazado_873855" data-name="Trazado 873855" d="M332.719,290.947H106.756L67,361.35H372.47Z" transform="translate(1020.705 1617.237) rotate(180)" fill="#aec2dd"/>
    <path id="Trazado_997975" data-name="Trazado 997975" d="M87.145,16.6a7.388,7.388,0,0,1-3.2.594,5.4,5.4,0,0,1-4.055-1.516,5.54,5.54,0,0,1-1.477-4.039,5.919,5.919,0,0,1,1.66-4.359,5.807,5.807,0,0,1,4.309-1.672,8.058,8.058,0,0,1,2.766.414v2.43a4.9,4.9,0,0,0-2.562-.672,3.4,3.4,0,0,0-2.547.992,3.682,3.682,0,0,0-.969,2.688,3.611,3.611,0,0,0,.914,2.59,3.229,3.229,0,0,0,2.461.965,5.249,5.249,0,0,0,2.7-.719Zm5.523.594a4.3,4.3,0,0,1-3.145-1.121,4.064,4.064,0,0,1-1.145-3.043,4.065,4.065,0,0,1,1.188-3.105A4.487,4.487,0,0,1,92.777,8.8,4.249,4.249,0,0,1,95.9,9.926a3.985,3.985,0,0,1,1.133,2.965,4.23,4.23,0,0,1-1.168,3.148A4.348,4.348,0,0,1,92.668,17.2Zm.063-6.5a1.647,1.647,0,0,0-1.359.6,2.653,2.653,0,0,0-.484,1.7q0,2.3,1.859,2.3,1.773,0,1.773-2.367Q94.52,10.7,92.73,10.7ZM111.34,17h-2.461V12.438q0-1.742-1.281-1.742a1.177,1.177,0,0,0-.992.523,2.151,2.151,0,0,0-.383,1.3V17h-2.469V12.391q0-1.7-1.258-1.7a1.206,1.206,0,0,0-1.012.5,2.2,2.2,0,0,0-.379,1.359V17H98.637V9h2.469v1.25h.031A3.031,3.031,0,0,1,103.723,8.8a2.3,2.3,0,0,1,2.32,1.492A2.959,2.959,0,0,1,108.73,8.8q2.609,0,2.609,3.219Zm4.453-.93h-.031V20.68h-2.469V9h2.469v1.2h.031a3.142,3.142,0,0,1,4.973-.332,4.54,4.54,0,0,1,.848,2.9,4.922,4.922,0,0,1-.988,3.211A3.222,3.222,0,0,1,118,17.2,2.491,2.491,0,0,1,115.793,16.07Zm-.07-3.281v.641a2.037,2.037,0,0,0,.438,1.352,1.424,1.424,0,0,0,1.148.523,1.514,1.514,0,0,0,1.309-.652,3.15,3.15,0,0,0,.465-1.848q0-2.109-1.641-2.109a1.541,1.541,0,0,0-1.238.574A2.29,2.29,0,0,0,115.723,12.789Zm14.68.914h-5.219q.125,1.742,2.2,1.742a4.286,4.286,0,0,0,2.32-.625V16.6a6.1,6.1,0,0,1-2.883.594,4.058,4.058,0,0,1-3.008-1.074,4.058,4.058,0,0,1-1.07-3,4.281,4.281,0,0,1,1.156-3.156A3.852,3.852,0,0,1,126.738,8.8a3.5,3.5,0,0,1,2.707,1.039,4,4,0,0,1,.957,2.82Zm-2.289-1.516q0-1.719-1.391-1.719a1.328,1.328,0,0,0-1.027.492,2.234,2.234,0,0,0-.527,1.227Zm8.594,4.719a3.649,3.649,0,0,1-1.648.289q-2.609,0-2.609-2.711V10.82h-1.3V9h1.3V7.273l2.461-.7V9h1.8v1.82h-1.8v3.234q0,1.25.992,1.25a1.673,1.673,0,0,0,.8-.227Zm8.516-3.2H140q.125,1.742,2.2,1.742a4.286,4.286,0,0,0,2.32-.625V16.6a6.1,6.1,0,0,1-2.883.594,4.058,4.058,0,0,1-3.008-1.074,4.058,4.058,0,0,1-1.07-3,4.281,4.281,0,0,1,1.156-3.156A3.852,3.852,0,0,1,141.559,8.8a3.5,3.5,0,0,1,2.707,1.039,4,4,0,0,1,.957,2.82Zm-2.289-1.516q0-1.719-1.391-1.719a1.328,1.328,0,0,0-1.027.492,2.234,2.234,0,0,0-.527,1.227ZM154.418,17h-2.461V12.555q0-1.859-1.328-1.859a1.318,1.318,0,0,0-1.055.492,1.875,1.875,0,0,0-.414,1.25V17h-2.469V9h2.469v1.266h.031a2.829,2.829,0,0,1,2.57-1.461q2.656,0,2.656,3.3Zm8.016-.289a4.881,4.881,0,0,1-2.414.484,4.083,4.083,0,0,1-2.984-1.117,3.859,3.859,0,0,1-1.141-2.883,4.251,4.251,0,0,1,1.223-3.215,4.518,4.518,0,0,1,3.27-1.176,4.2,4.2,0,0,1,2.047.375v2.094a2.814,2.814,0,0,0-1.727-.578,2.275,2.275,0,0,0-1.684.621,2.317,2.317,0,0,0-.621,1.715A2.28,2.28,0,0,0,159,14.7a2.182,2.182,0,0,0,1.633.605,3.258,3.258,0,0,0,1.8-.578ZM165.3,7.734a1.442,1.442,0,0,1-1.023-.371,1.2,1.2,0,0,1-.4-.91,1.153,1.153,0,0,1,.4-.906,1.671,1.671,0,0,1,2.051,0,1.158,1.158,0,0,1,.395.906,1.191,1.191,0,0,1-.395.922A1.466,1.466,0,0,1,165.3,7.734ZM166.52,17h-2.469V9h2.469Zm8.734,0h-2.336V15.852h-.031A2.607,2.607,0,0,1,170.5,17.2a2.492,2.492,0,0,1-1.832-.66A2.366,2.366,0,0,1,168,14.773q0-2.328,2.758-2.687l2.172-.289q0-1.312-1.422-1.312a4.853,4.853,0,0,0-2.719.852V9.477a6.116,6.116,0,0,1,1.41-.469,7.413,7.413,0,0,1,1.629-.2q3.422,0,3.422,3.414Zm-2.32-3.25v-.539l-1.453.188q-1.2.156-1.2,1.086a.9.9,0,0,0,.293.691,1.126,1.126,0,0,0,.793.27,1.462,1.462,0,0,0,1.133-.48A1.735,1.735,0,0,0,172.934,13.75Z" transform="translate(673 1199.081)" fill="#fff"/>
    <path id="Trazado_997976" data-name="Trazado 997976" d="M101.551,17H99.02V12.438H94.379V17H91.855V5.8h2.523v4.469H99.02V5.8h2.531Zm8.977,0h-2.336V15.852h-.031a2.607,2.607,0,0,1-2.383,1.344,2.492,2.492,0,0,1-1.832-.66,2.366,2.366,0,0,1-.668-1.762q0-2.328,2.758-2.687l2.172-.289q0-1.312-1.422-1.312a4.853,4.853,0,0,0-2.719.852V9.477a6.116,6.116,0,0,1,1.41-.469,7.413,7.413,0,0,1,1.629-.2q3.422,0,3.422,3.414Zm-2.32-3.25v-.539l-1.453.188q-1.2.156-1.2,1.086a.9.9,0,0,0,.293.691,1.126,1.126,0,0,0,.793.27,1.462,1.462,0,0,0,1.133-.48A1.735,1.735,0,0,0,108.207,13.75Zm6.773,2.32h-.031V17H112.48V5.156h2.469V10.2h.031a2.929,2.929,0,0,1,2.6-1.4,2.855,2.855,0,0,1,2.383,1.063,4.582,4.582,0,0,1,.836,2.906,4.962,4.962,0,0,1-.977,3.211,3.181,3.181,0,0,1-2.609,1.211A2.521,2.521,0,0,1,114.98,16.07Zm-.07-3.375v.82a1.872,1.872,0,0,0,.445,1.281,1.449,1.449,0,0,0,1.141.508,1.514,1.514,0,0,0,1.309-.652,3.15,3.15,0,0,0,.465-1.848,2.506,2.506,0,0,0-.426-1.551,1.437,1.437,0,0,0-1.215-.559,1.569,1.569,0,0,0-1.23.555A2.107,2.107,0,0,0,114.91,12.7Zm8.742-4.961a1.442,1.442,0,0,1-1.023-.371,1.2,1.2,0,0,1-.4-.91,1.153,1.153,0,0,1,.4-.906,1.671,1.671,0,0,1,2.051,0,1.158,1.158,0,0,1,.395.906,1.191,1.191,0,0,1-.395.922A1.466,1.466,0,0,1,123.652,7.734ZM124.871,17H122.4V9h2.469Zm4.547,0h-2.469V5.156h2.469Zm3.328-9.266a1.442,1.442,0,0,1-1.023-.371,1.2,1.2,0,0,1-.4-.91,1.153,1.153,0,0,1,.4-.906,1.671,1.671,0,0,1,2.051,0,1.158,1.158,0,0,1,.395.906,1.191,1.191,0,0,1-.395.922A1.466,1.466,0,0,1,132.746,7.734ZM133.965,17H131.5V9h2.469Zm9.906,0H141.4V15.9h-.031a2.768,2.768,0,0,1-2.477,1.3,3.033,3.033,0,0,1-2.414-1.059,4.382,4.382,0,0,1-.914-2.957A4.77,4.77,0,0,1,136.574,10a3.287,3.287,0,0,1,2.641-1.2,2.246,2.246,0,0,1,2.156,1.109h.031V5.156h2.469Zm-2.422-3.891v-.6a1.893,1.893,0,0,0-.453-1.3,1.6,1.6,0,0,0-2.461.129,2.993,2.993,0,0,0-.461,1.77,2.59,2.59,0,0,0,.445,1.625,1.581,1.581,0,0,0,2.457-.031A2.507,2.507,0,0,0,141.449,13.109ZM152.605,17H150.27V15.852h-.031a2.607,2.607,0,0,1-2.383,1.344,2.492,2.492,0,0,1-1.832-.66,2.366,2.366,0,0,1-.668-1.762q0-2.328,2.758-2.687l2.172-.289q0-1.312-1.422-1.312a4.853,4.853,0,0,0-2.719.852V9.477a6.116,6.116,0,0,1,1.41-.469,7.413,7.413,0,0,1,1.629-.2q3.422,0,3.422,3.414Zm-2.32-3.25v-.539l-1.453.188q-1.2.156-1.2,1.086a.9.9,0,0,0,.293.691,1.126,1.126,0,0,0,.793.27,1.462,1.462,0,0,0,1.133-.48A1.735,1.735,0,0,0,150.285,13.75Zm12.1,3.25h-2.469V15.9h-.031a2.768,2.768,0,0,1-2.477,1.3A3.033,3.033,0,0,1,155,16.137a4.382,4.382,0,0,1-.914-2.957A4.77,4.77,0,0,1,155.09,10a3.287,3.287,0,0,1,2.641-1.2,2.246,2.246,0,0,1,2.156,1.109h.031V5.156h2.469Zm-2.422-3.891v-.6a1.893,1.893,0,0,0-.453-1.3,1.6,1.6,0,0,0-2.461.129,2.993,2.993,0,0,0-.461,1.77,2.59,2.59,0,0,0,.445,1.625,1.581,1.581,0,0,0,2.457-.031A2.507,2.507,0,0,0,159.965,13.109Z" transform="translate(673 1278.081)" fill="#12263f"/>
    <path id="Trazado_997977" data-name="Trazado 997977" d="M95.8,17V5.8h3.969q5.969,0,5.969,5.461a5.522,5.522,0,0,1-1.629,4.18A6.007,6.007,0,0,1,99.773,17Zm2.523-9.148v7.1h1.25a3.378,3.378,0,0,0,2.574-.984,3.735,3.735,0,0,0,.934-2.68,3.388,3.388,0,0,0-.926-2.52,3.529,3.529,0,0,0-2.6-.918ZM114.547,13.7h-5.219q.125,1.742,2.2,1.742a4.286,4.286,0,0,0,2.32-.625V16.6a6.1,6.1,0,0,1-2.883.594,4.058,4.058,0,0,1-3.008-1.074,4.058,4.058,0,0,1-1.07-3,4.281,4.281,0,0,1,1.156-3.156A3.852,3.852,0,0,1,110.883,8.8a3.5,3.5,0,0,1,2.707,1.039,4,4,0,0,1,.957,2.82Zm-2.289-1.516q0-1.719-1.391-1.719a1.328,1.328,0,0,0-1.027.492,2.234,2.234,0,0,0-.527,1.227Zm3.234,4.6v-2a5.256,5.256,0,0,0,1.215.547,4.028,4.028,0,0,0,1.145.18,2.455,2.455,0,0,0,1.035-.18.581.581,0,0,0,.379-.547.506.506,0,0,0-.172-.391,1.6,1.6,0,0,0-.441-.273,5.009,5.009,0,0,0-.59-.211q-.32-.094-.617-.211a5.913,5.913,0,0,1-.84-.387,2.427,2.427,0,0,1-.609-.48,1.889,1.889,0,0,1-.375-.633,2.525,2.525,0,0,1-.129-.852,2.192,2.192,0,0,1,.293-1.156,2.393,2.393,0,0,1,.781-.793,3.57,3.57,0,0,1,1.117-.453,5.825,5.825,0,0,1,1.309-.145,7.261,7.261,0,0,1,1.078.082,8.047,8.047,0,0,1,1.078.238v1.906a3.9,3.9,0,0,0-1-.41,4.235,4.235,0,0,0-1.051-.137,2.328,2.328,0,0,0-.457.043,1.505,1.505,0,0,0-.379.125.7.7,0,0,0-.258.211.486.486,0,0,0-.094.293.541.541,0,0,0,.141.375,1.221,1.221,0,0,0,.367.27,3.625,3.625,0,0,0,.5.2q.277.09.551.184a7.161,7.161,0,0,1,.891.375,2.848,2.848,0,0,1,.684.477,1.872,1.872,0,0,1,.438.641,2.563,2.563,0,0,1-.156,2.09,2.471,2.471,0,0,1-.82.82,3.72,3.72,0,0,1-1.18.461,6.54,6.54,0,0,1-1.387.145A7.149,7.149,0,0,1,115.492,16.789Zm12.4.117a3.649,3.649,0,0,1-1.648.289q-2.609,0-2.609-2.711V10.82h-1.3V9h1.3V7.273l2.461-.7V9h1.8v1.82h-1.8v3.234q0,1.25.992,1.25a1.673,1.673,0,0,0,.8-.227Zm6.609-5.68a2.142,2.142,0,0,0-1.039-.242,1.5,1.5,0,0,0-1.258.59,2.573,2.573,0,0,0-.453,1.605V17h-2.469V9h2.469v1.484h.031a2.136,2.136,0,0,1,2.109-1.625,1.59,1.59,0,0,1,.609.094Zm8.273,2.477h-5.219q.125,1.742,2.2,1.742a4.286,4.286,0,0,0,2.32-.625V16.6a6.1,6.1,0,0,1-2.883.594,4.058,4.058,0,0,1-3.008-1.074,4.058,4.058,0,0,1-1.07-3,4.281,4.281,0,0,1,1.156-3.156A3.852,3.852,0,0,1,139.109,8.8a3.5,3.5,0,0,1,2.707,1.039,4,4,0,0,1,.957,2.82Zm-2.289-1.516q0-1.719-1.391-1.719a1.328,1.328,0,0,0-1.027.492,2.234,2.234,0,0,0-.527,1.227ZM150.578,17H143.4V15.977l4.016-5.156H143.8V9h6.75v1.219l-3.8,4.961h3.836Zm7.984,0h-2.336V15.852H156.2a2.607,2.607,0,0,1-2.383,1.344,2.492,2.492,0,0,1-1.832-.66,2.366,2.366,0,0,1-.668-1.762q0-2.328,2.758-2.687l2.172-.289q0-1.312-1.422-1.312a4.853,4.853,0,0,0-2.719.852V9.477a6.116,6.116,0,0,1,1.41-.469,7.413,7.413,0,0,1,1.629-.2q3.422,0,3.422,3.414Zm-2.32-3.25v-.539l-1.453.188q-1.2.156-1.2,1.086a.9.9,0,0,0,.293.691,1.126,1.126,0,0,0,.793.27,1.462,1.462,0,0,0,1.133-.48A1.735,1.735,0,0,0,156.242,13.75Z" transform="translate(673 1354.081)" fill="#12263f"/>
    <path id="Trazado_997978" data-name="Trazado 997978" d="M100.539,16.6a7.388,7.388,0,0,1-3.2.594,5.4,5.4,0,0,1-4.055-1.516A5.54,5.54,0,0,1,91.8,11.641a5.919,5.919,0,0,1,1.66-4.359,5.807,5.807,0,0,1,4.309-1.672,8.058,8.058,0,0,1,2.766.414v2.43a4.9,4.9,0,0,0-2.562-.672,3.4,3.4,0,0,0-2.547.992,3.682,3.682,0,0,0-.969,2.688,3.611,3.611,0,0,0,.914,2.59,3.229,3.229,0,0,0,2.461.965,5.249,5.249,0,0,0,2.7-.719Zm5.523.594a4.3,4.3,0,0,1-3.145-1.121,4.064,4.064,0,0,1-1.145-3.043,4.065,4.065,0,0,1,1.188-3.105A4.487,4.487,0,0,1,106.172,8.8,4.249,4.249,0,0,1,109.3,9.926a3.985,3.985,0,0,1,1.133,2.965,4.23,4.23,0,0,1-1.168,3.148A4.348,4.348,0,0,1,106.063,17.2Zm.063-6.5a1.647,1.647,0,0,0-1.359.6,2.653,2.653,0,0,0-.484,1.7q0,2.3,1.859,2.3,1.773,0,1.773-2.367Q107.914,10.7,106.125,10.7ZM119.758,17H117.3V12.555q0-1.859-1.328-1.859a1.318,1.318,0,0,0-1.055.492,1.875,1.875,0,0,0-.414,1.25V17h-2.469V9H114.5v1.266h.031A2.829,2.829,0,0,1,117.1,8.8q2.656,0,2.656,3.3Zm9.781,0H127.07V15.9h-.031a2.768,2.768,0,0,1-2.477,1.3,3.033,3.033,0,0,1-2.414-1.059,4.382,4.382,0,0,1-.914-2.957A4.77,4.77,0,0,1,122.242,10a3.287,3.287,0,0,1,2.641-1.2,2.246,2.246,0,0,1,2.156,1.109h.031V5.156h2.469Zm-2.422-3.891v-.6a1.893,1.893,0,0,0-.453-1.3,1.6,1.6,0,0,0-2.461.129,2.993,2.993,0,0,0-.461,1.77,2.59,2.59,0,0,0,.445,1.625,1.581,1.581,0,0,0,2.457-.031A2.507,2.507,0,0,0,127.117,13.109ZM139.219,17h-2.461V15.781h-.039a2.792,2.792,0,0,1-2.445,1.414q-2.781,0-2.781-3.367V9h2.461v4.609q0,1.7,1.344,1.7a1.329,1.329,0,0,0,1.063-.465,1.874,1.874,0,0,0,.4-1.262V9h2.461Zm8.141-.289a4.881,4.881,0,0,1-2.414.484,4.083,4.083,0,0,1-2.984-1.117A3.859,3.859,0,0,1,140.82,13.2a4.251,4.251,0,0,1,1.223-3.215,4.518,4.518,0,0,1,3.27-1.176,4.2,4.2,0,0,1,2.047.375v2.094a2.814,2.814,0,0,0-1.727-.578,2.275,2.275,0,0,0-1.684.621,2.317,2.317,0,0,0-.621,1.715,2.28,2.28,0,0,0,.594,1.668,2.182,2.182,0,0,0,1.633.605,3.258,3.258,0,0,0,1.8-.578Zm6.453.2a3.649,3.649,0,0,1-1.648.289q-2.609,0-2.609-2.711V10.82h-1.3V9h1.3V7.273l2.461-.7V9h1.8v1.82h-1.8v3.234q0,1.25.992,1.25a1.673,1.673,0,0,0,.8-.227Zm8.047.094h-2.336V15.852h-.031a2.607,2.607,0,0,1-2.383,1.344,2.492,2.492,0,0,1-1.832-.66,2.366,2.366,0,0,1-.668-1.762q0-2.328,2.758-2.687l2.172-.289q0-1.312-1.422-1.312a4.853,4.853,0,0,0-2.719.852V9.477a6.116,6.116,0,0,1,1.41-.469,7.413,7.413,0,0,1,1.629-.2q3.422,0,3.422,3.414Zm-2.32-3.25v-.539l-1.453.188q-1.2.156-1.2,1.086a.9.9,0,0,0,.293.691,1.126,1.126,0,0,0,.793.27,1.462,1.462,0,0,0,1.133-.48A1.735,1.735,0,0,0,159.539,13.75Z" transform="translate(673 1430.081)" fill="#12263f"/>
    <path id="Trazado_997971" data-name="Trazado 997971" d="M0,0H100V6H0Z" transform="translate(948 1209.081)" fill="#4e5661"/>
    <path id="Trazado_997980" data-name="Trazado 997980" d="M0,0H133V6H0Z" transform="translate(685 1292.081) rotate(180)" fill="#aec2dd"/>
    <path id="Trazado_997979" data-name="Trazado 997979" d="M0,0H133V6H0Z" transform="translate(753 1447.081) rotate(180)" fill="#d8dde0"/>
    <path id="Trazado_997974" data-name="Trazado 997974" d="M0,0H158V6H0Z" transform="translate(845 1363.081)" fill="#c2e8e8"/>
    <path id="Trazado_997968" data-name="Trazado 997968" d="M50,0A50,50,0,1,1,0,50,50,50,0,0,1,50,0Z" transform="translate(1025 1160.081)" fill="#4e5661"/>
    <path id="Trazado_997983" data-name="Trazado 997983" d="M50,0A50,50,0,1,1,0,50,50,50,0,0,1,50,0Z" transform="translate(575 1341.081) rotate(180)" fill="#aec2dd"/>
    <path id="Trazado_997981" data-name="Trazado 997981" d="M50,0A50,50,0,1,1,0,50,50,50,0,0,1,50,0Z" transform="translate(643 1496.081) rotate(180)" fill="#d8dde0"/>
    <path id="Trazado_997972" data-name="Trazado 997972" d="M50,0A50,50,0,1,1,0,50,50,50,0,0,1,50,0Z" transform="translate(980 1314.081)" fill="#c2e8e8"/>
    <path id="Trazado_997969" data-name="Trazado 997969" d="M41,0A41,41,0,1,1,0,41,41,41,0,0,1,41,0Z" transform="translate(1034 1169.081)" fill="#e6f3f3"/>
    <path id="Trazado_997973" data-name="Trazado 997973" d="M41,0A41,41,0,1,1,0,41,41,41,0,0,1,41,0Z" transform="translate(989 1323.081)" fill="#e6f3f3"/>
    <path id="Trazado_997984" data-name="Trazado 997984" d="M41,0A41,41,0,1,1,0,41,41,41,0,0,1,41,0Z" transform="translate(566 1332.081) rotate(180)" fill="#e6f3f3"/>
    <path id="Trazado_997982" data-name="Trazado 997982" d="M41,0A41,41,0,1,1,0,41,41,41,0,0,1,41,0Z" transform="translate(634 1487.081) rotate(180)" fill="#e6f3f3"/>
    <g id="Grupo_1100246" data-name="Grupo 1100246" transform="translate(498 1260.081)">
      <path id="Trazado_880597" data-name="Trazado 880597" d="M25.421,69.839V64.328A25.446,25.446,0,0,0,2.035,86.247h5.56A19.967,19.967,0,0,1,25.421,69.839Zm0,0" transform="translate(-1.804 -57.04)" fill="#4e5661"/>
      <path id="Trazado_880598" data-name="Trazado 880598" d="M240.313,309.323v5.511a25.454,25.454,0,0,0,23.616-25.186h-5.5a19.923,19.923,0,0,1-18.12,19.675Zm0,0" transform="translate(-213.091 -256.837)" fill="#4e5661"/>
      <path id="Trazado_880599" data-name="Trazado 880599" d="M313.854,21.709h13.883a1.8,1.8,0,0,0,1.762-2.185A25.467,25.467,0,0,0,308.579.022a1.8,1.8,0,0,0-2.072,1.783V15.026a20.064,20.064,0,0,1,7.346,6.683Zm0,0" transform="translate(-271.787 0)" fill="#4e5661"/>
      <path id="Trazado_880600" data-name="Trazado 880600" d="M5.494,289.648H0a25.464,25.464,0,0,0,23.6,25.186h.015v-5.513A19.93,19.93,0,0,1,5.495,289.648Zm0,0" transform="translate(0 -256.836)" fill="#4e5661"/>
      <path id="Trazado_880601" data-name="Trazado 880601" d="M80.32,160.416a16.387,16.387,0,0,0,5.42,12.14V172a10.9,10.9,0,0,1,5.55-9.493,7.62,7.62,0,0,1,5.35-13.047h0a7.62,7.62,0,0,1,5.349,13.047A10.906,10.906,0,0,1,107.539,172v.56a16.317,16.317,0,0,0-10.9-28.462h0a16.339,16.339,0,0,0-16.32,16.319Zm0,0" transform="translate(-71.222 -127.774)" fill="#4e5661"/>
      <path id="Trazado_880602" data-name="Trazado 880602" d="M192.94,223.262a4.018,4.018,0,0,0,0,8.036h0a4.018,4.018,0,0,0,0-8.036Zm0,0" transform="translate(-167.521 -197.971)" fill="#4e5661"/>
      <path id="Trazado_880603" data-name="Trazado 880603" d="M174.58,333.321a7.3,7.3,0,0,0-7.292-7.294h0a7.3,7.3,0,0,0-7.295,7.294v3.019a16.347,16.347,0,0,0,14.588,0Zm0,0" transform="translate(-141.868 -289.095)" fill="#4e5661"/>
    </g>
    <g id="Grupo_1100247" data-name="Grupo 1100247" transform="translate(1052 1182.079)">
      <path id="Trazado_880604" data-name="Trazado 880604" d="M193.393,180H182.377A1.376,1.376,0,0,0,181,181.377V209.1a1.376,1.376,0,0,0,1.377,1.377h11.016a1.376,1.376,0,0,0,1.377-1.377V181.377A1.376,1.376,0,0,0,193.393,180Z" transform="translate(-164.385 -163.476)" fill="#4e5661"/>
      <path id="Trazado_880605" data-name="Trazado 880605" d="M12.484,270H1.377A1.376,1.376,0,0,0,0,271.377v19.461a1.376,1.376,0,0,0,1.377,1.377H12.484a1.376,1.376,0,0,0,1.377-1.377V271.377A1.376,1.376,0,0,0,12.484,270Z" transform="translate(0 -245.214)" fill="#4e5661"/>
      <path id="Trazado_880606" data-name="Trazado 880606" d="M373.484,360H362.377A1.376,1.376,0,0,0,361,361.377v11.2a1.376,1.376,0,0,0,1.377,1.377h11.107a1.376,1.376,0,0,0,1.377-1.377v-11.2A1.376,1.376,0,0,0,373.484,360Z" transform="translate(-327.861 -326.953)" fill="#4e5661"/>
      <path id="Trazado_880607" data-name="Trazado 880607" d="M197.091,4.758a1.379,1.379,0,0,0-1.105-.937l-2.9-.436L191.774.7a1.434,1.434,0,0,0-2.463,0L188,3.385l-2.9.436a1.378,1.378,0,0,0-.762,2.344l2.091,2.057-.481,2.894a1.377,1.377,0,0,0,1.993,1.448l2.6-1.351,2.6,1.351a1.377,1.377,0,0,0,1.993-1.448l-.481-2.894,2.091-2.057A1.378,1.378,0,0,0,197.091,4.758Z" transform="translate(-167.042)" fill="#4e5661"/>
      <path id="Trazado_880608" data-name="Trazado 880608" d="M5.1,94.426a1.378,1.378,0,0,0-.762,2.344l2.091,2.057-.481,2.894a1.377,1.377,0,0,0,1.993,1.448l2.6-1.351,2.6,1.351a1.377,1.377,0,0,0,1.993-1.448l-.481-2.894,2.091-2.057a1.378,1.378,0,0,0-.762-2.344l-2.9-.436-1.311-2.623a1.434,1.434,0,0,0-2.463,0L8,93.99Z" transform="translate(-3.566 -82.343)" fill="#4e5661"/>
      <path id="Trazado_880609" data-name="Trazado 880609" d="M377.091,185.363a1.379,1.379,0,0,0-1.105-.937l-2.9-.436-1.311-2.623a1.434,1.434,0,0,0-2.463,0L368,183.99l-2.9.436a1.378,1.378,0,0,0-.762,2.344l2.091,2.057-.481,2.894a1.377,1.377,0,0,0,1.993,1.448l2.6-1.351,2.6,1.351a1.377,1.377,0,0,0,1.993-1.448l-.481-2.894,2.091-2.057A1.378,1.378,0,0,0,377.091,185.363Z" transform="translate(-330.519 -164.081)" fill="#4e5661"/>
    </g>
    <path id="Trazado_880610" data-name="Trazado 880610" d="M86.22,56.023a18.252,18.252,0,0,1,4.292,4.6l.836,1.283a.121.121,0,0,1-.041.171L85.026,65.7a.122.122,0,0,1-.166-.044l-.6-1.04h0l-.787-1.36a2.061,2.061,0,0,0-3.57,2.062l1.385,2.4a.122.122,0,0,1-.044.166l-6.031,3.482a.119.119,0,0,1-.121,0L70.22,68.555a.122.122,0,0,0-.166.044l-.733,1.255a3.391,3.391,0,0,1-5.867-3.4l.721-1.249a.122.122,0,0,0-.044-.166l-4.644-2.681a.121.121,0,0,1-.04-.173,22.579,22.579,0,0,1,11.033-7.922,17.072,17.072,0,0,1,7-.5c.888.122,1.691.923.658,1.519L76.1,56.457a2.019,2.019,0,0,0-.823,3.1,2.275,2.275,0,0,0,3.1.814l7.708-4.359A.119.119,0,0,1,86.22,56.023Zm.741,39.75a.119.119,0,0,0,.074-.111l.079-8.855a2.275,2.275,0,0,1,2.254-2.276,2.019,2.019,0,0,1,2.276,2.264v2.351c0,1.193,1.095.9,1.644.19a17.07,17.07,0,0,0,3.068-6.311,22.578,22.578,0,0,0-1.344-13.516.121.121,0,0,0-.17-.052L90.2,72.137a.122.122,0,0,1-.166-.044l-.721-1.249a3.391,3.391,0,0,0-5.879,3.38l.72,1.262a.122.122,0,0,1-.045.165l-4.871,2.812a.119.119,0,0,0-.061.105v6.964a.122.122,0,0,0,.121.121h2.77a2.061,2.061,0,0,1,0,4.122H79.3a.122.122,0,0,0-.121.121v7.251a.121.121,0,0,0,.128.121l1.529-.082a18.255,18.255,0,0,0,6.13-1.417Zm10.947,3.319-10.529.166a.122.122,0,0,0-.12.121v2.276a.121.121,0,0,0,.123.121l10.529-.166a.122.122,0,0,0,.12-.121V99.214A.121.121,0,0,0,97.907,99.092Zm-7.586-8.677c.987,1.687,3.544.772,4.541-.6a18.619,18.619,0,0,0,3.406-13.262.122.122,0,0,1,.168-.127c4.485,1.906,0,14.479-1.4,17.554a6.716,6.716,0,0,0-.426,3.2.122.122,0,0,1-.12.122l-7.8.123a.121.121,0,0,1-.123-.123l.094-10.5a.707.707,0,0,1,.213-.512.718.718,0,0,1,1.223.5v2.777h0A1.661,1.661,0,0,0,90.321,90.415ZM52.165,76.54a.119.119,0,0,0,.059.12l7.629,4.5a2.275,2.275,0,0,1,.844,3.09,2.019,2.019,0,0,1-3.1.839l-2.036-1.175c-1.034-.6-1.325.5-.987,1.329a17.072,17.072,0,0,0,3.932,5.813,22.579,22.579,0,0,0,12.377,5.594.121.121,0,0,0,.13-.121V91.161a.122.122,0,0,1,.121-.121H72.58a3.391,3.391,0,0,0,.012-6.781l-1.453-.008a.122.122,0,0,1-.121-.121V78.505a.119.119,0,0,0-.061-.105l-6.031-3.482a.122.122,0,0,0-.166.044l-1.385,2.4A2.061,2.061,0,0,1,59.8,75.3l.785-1.362h0l.6-1.04a.122.122,0,0,0-.044-.166l-6.28-3.626a.121.121,0,0,0-.169.05L54,70.523a18.25,18.25,0,0,0-1.838,6.017ZM43.817,84.36l5.121-9.2a.122.122,0,0,0-.045-.164l-1.971-1.138a.121.121,0,0,0-.167.046l-5.121,9.2a.122.122,0,0,0,.045.164l1.971,1.138A.121.121,0,0,0,43.817,84.36Zm11.308-2.23c-1.954.011-2.44,2.683-1.751,4.233a18.618,18.618,0,0,0,9.782,9.58.122.122,0,0,1,.026.209c-3.894,2.932-12.542-7.236-14.5-9.989A6.715,6.715,0,0,0,46.125,84.2a.122.122,0,0,1-.046-.165l3.794-6.817a.121.121,0,0,1,.168-.046L59.083,82.5a.707.707,0,0,1,.337.44.718.718,0,0,1-1.047.808l-2.405-1.389v0a1.658,1.658,0,0,0-.844-.225Zm28.5-37.246,5.408,9.035a.122.122,0,0,0,.165.043l1.971-1.138a.121.121,0,0,0,.043-.168L85.8,43.621a.122.122,0,0,0-.165-.043l-1.971,1.138A.121.121,0,0,0,83.62,44.883ZM79.9,55.791a1.66,1.66,0,0,1-.617.618v0L76.876,57.8a.718.718,0,0,0,.176,1.311.707.707,0,0,0,.55-.071l9.136-5.167a.121.121,0,0,0,.044-.168l-4.007-6.695a.122.122,0,0,0-.165-.043,6.715,6.715,0,0,1-2.982,1.229c-3.365.322-16.494,2.728-15.9,7.565a.122.122,0,0,0,.194.082,18.619,18.619,0,0,1,13.188-3.681C78.795,52.336,80.866,54.093,79.9,55.791Z" transform="translate(955.618 1288.439)" fill="#4e5661" fill-rule="evenodd"/>
    <g id="Grupo_1100250" data-name="Grupo 1100250" transform="translate(-2 120.959)">
      <g id="Grupo_1100249" data-name="Grupo 1100249" transform="translate(568 1299.244)">
        <path id="Trazado_880611" data-name="Trazado 880611" d="M13.177,297.244A13.122,13.122,0,1,0,0,284.068,13.251,13.251,0,0,0,13.177,297.244Zm1.633-18.077h3.267v3.267H14.81Zm-6.534,0h3.267v3.267H8.276Zm1.829,5.978a3.249,3.249,0,0,0,6.142,0l3.1,1.111a6.56,6.56,0,0,1-12.349,0Z" transform="translate(0 -241.489)" fill="#4e5661"/>
        <path id="Trazado_880612" data-name="Trazado 880612" d="M284.068,271a13.122,13.122,0,0,0,0,26.244,13.122,13.122,0,1,0,0-26.244Zm1.633,8.167h3.267v3.267H285.7Zm-6.534,0h3.267v3.267h-3.267Zm7.971,10.356a3.249,3.249,0,0,0-6.142,0l-3.1-1.111a6.56,6.56,0,0,1,12.349,0Z" transform="translate(-241.489 -241.489)" fill="#4e5661"/>
        <path id="Trazado_880613" data-name="Trazado 880613" d="M0,13.177A13.122,13.122,0,1,0,13.177,0,13.251,13.251,0,0,0,0,13.177Zm14.81-4.9h3.267v3.267H14.81Zm-6.534,0h3.267v3.267H8.276Zm0,6.534h9.8v3.267h-9.8Z" fill="#4e5661"/>
        <path id="Trazado_880614" data-name="Trazado 880614" d="M214.267,211v3.267H211v3.267h3.267V220.8h3.267v-3.267H220.8v-3.267h-3.267V211Z" transform="translate(-188.022 -188.022)" fill="#4e5661"/>
        <path id="Trazado_880615" data-name="Trazado 880615" d="M284.068,0a13.122,13.122,0,1,0,13.177,13.177A13.157,13.157,0,0,0,284.068,0Zm-4.9,8.276h3.267v3.267h-3.267Zm2.352,11.271-1.437-2.94,6.534-3.267,1.437,2.94Zm7.449-8H285.7V8.276h3.267Z" transform="translate(-241.489)" fill="#4e5661"/>
      </g>
    </g>
    <path id="Trazado_997967" data-name="Trazado 997967" d="M12,0H806a12,12,0,0,1,12,12V54a12,12,0,0,1-12,12H12A12,12,0,0,1,0,54V12A12,12,0,0,1,12,0Z" transform="translate(390 1084)" fill="#ffe7ae"/>
    <path id="Trazado_997970" data-name="Trazado 997970" d="M10.837,19V6.4h3.48q6.662,0,6.662,6.144a6.191,6.191,0,0,1-1.85,4.689A6.863,6.863,0,0,1,14.177,19ZM12.314,7.732v9.932h1.881a5.338,5.338,0,0,0,3.858-1.327,4.975,4.975,0,0,0,1.38-3.762q0-4.843-5.15-4.843ZM30.5,14.86H24.144a3.366,3.366,0,0,0,.809,2.32A2.788,2.788,0,0,0,27.08,18a4.422,4.422,0,0,0,2.795-1V18.35a5.224,5.224,0,0,1-3.138.861,3.8,3.8,0,0,1-3-1.226,5.018,5.018,0,0,1-1.09-3.45,4.921,4.921,0,0,1,1.191-3.423A3.819,3.819,0,0,1,26.8,9.789a3.384,3.384,0,0,1,2.733,1.143A4.764,4.764,0,0,1,30.5,14.1Zm-1.477-1.222a2.933,2.933,0,0,0-.6-1.942A2.051,2.051,0,0,0,26.772,11a2.328,2.328,0,0,0-1.731.729,3.31,3.31,0,0,0-.879,1.907Zm3.111,5.036V17.128a4.266,4.266,0,0,0,2.593.87q1.9,0,1.9-1.266a1.1,1.1,0,0,0-.163-.611,1.62,1.62,0,0,0-.439-.444,3.383,3.383,0,0,0-.65-.347q-.374-.154-.8-.321a10.357,10.357,0,0,1-1.05-.479,3.173,3.173,0,0,1-.756-.545,2.028,2.028,0,0,1-.457-.69,2.441,2.441,0,0,1-.154-.905,2.15,2.15,0,0,1,.29-1.121,2.572,2.572,0,0,1,.773-.817,3.607,3.607,0,0,1,1.1-.5A4.893,4.893,0,0,1,35.6,9.789a5.164,5.164,0,0,1,2.092.4v1.459A4.077,4.077,0,0,0,35.4,11a2.671,2.671,0,0,0-.729.092,1.786,1.786,0,0,0-.558.259,1.2,1.2,0,0,0-.36.4,1.053,1.053,0,0,0-.127.514,1.233,1.233,0,0,0,.127.589,1.3,1.3,0,0,0,.374.422,2.855,2.855,0,0,0,.6.334q.352.149.8.325a11.131,11.131,0,0,1,1.072.47,3.678,3.678,0,0,1,.809.545,2.129,2.129,0,0,1,.514.7,2.254,2.254,0,0,1,.18.94,2.217,2.217,0,0,1-.294,1.16,2.523,2.523,0,0,1-.787.817,3.6,3.6,0,0,1-1.134.483,5.6,5.6,0,0,1-1.345.158A5.106,5.106,0,0,1,32.133,18.675ZM48,19H46.556V17.471h-.035a3.327,3.327,0,0,1-3.094,1.74A3.362,3.362,0,0,1,40.716,18,4.958,4.958,0,0,1,39.7,14.711a5.394,5.394,0,0,1,1.125-3.577,3.71,3.71,0,0,1,3-1.345,2.885,2.885,0,0,1,2.7,1.459h.035V5.676H48Zm-1.441-4.069V13.6a2.575,2.575,0,0,0-.721-1.846A2.417,2.417,0,0,0,44.007,11a2.489,2.489,0,0,0-2.074.967,4.237,4.237,0,0,0-.756,2.672A3.81,3.81,0,0,0,41.9,17.1a2.37,2.37,0,0,0,1.947.9,2.462,2.462,0,0,0,1.956-.87A3.242,3.242,0,0,0,46.556,14.931Zm11.593-.07H51.794a3.366,3.366,0,0,0,.809,2.32A2.788,2.788,0,0,0,54.73,18a4.422,4.422,0,0,0,2.795-1V18.35a5.224,5.224,0,0,1-3.138.861,3.8,3.8,0,0,1-3-1.226,5.018,5.018,0,0,1-1.09-3.45,4.921,4.921,0,0,1,1.191-3.423,3.819,3.819,0,0,1,2.958-1.323,3.384,3.384,0,0,1,2.733,1.143,4.764,4.764,0,0,1,.967,3.173Zm-1.477-1.222a2.933,2.933,0,0,0-.6-1.942A2.051,2.051,0,0,0,54.422,11a2.328,2.328,0,0,0-1.731.729,3.31,3.31,0,0,0-.879,1.907ZM66.7,19H65.259V5.676H66.7Zm6.68.211a4.175,4.175,0,0,1-3.186-1.261A4.672,4.672,0,0,1,69,14.605a4.867,4.867,0,0,1,1.239-3.542,4.455,4.455,0,0,1,3.349-1.274,4.037,4.037,0,0,1,3.142,1.239,4.914,4.914,0,0,1,1.129,3.437,4.835,4.835,0,0,1-1.217,3.45A4.265,4.265,0,0,1,73.38,19.211ZM73.486,11a2.742,2.742,0,0,0-2.2.945,3.88,3.88,0,0,0-.809,2.606,3.67,3.67,0,0,0,.817,2.522A2.778,2.778,0,0,0,73.486,18a2.635,2.635,0,0,0,2.149-.905,3.928,3.928,0,0,0,.751-2.575,4,4,0,0,0-.751-2.6A2.623,2.623,0,0,0,73.486,11Zm24.39,8H96.434V13.832a3.9,3.9,0,0,0-.461-2.162A1.75,1.75,0,0,0,94.421,11a1.921,1.921,0,0,0-1.569.844,3.228,3.228,0,0,0-.646,2.021V19H90.765V13.656Q90.765,11,88.717,11a1.9,1.9,0,0,0-1.564.8,3.288,3.288,0,0,0-.615,2.07V19H85.1V10h1.441v1.424h.035a3.058,3.058,0,0,1,2.795-1.635,2.6,2.6,0,0,1,2.549,1.863A3.212,3.212,0,0,1,94.9,9.789q2.971,0,2.971,3.665Zm9.958-4.14h-6.354a3.366,3.366,0,0,0,.809,2.32,2.788,2.788,0,0,0,2.127.817,4.422,4.422,0,0,0,2.795-1V18.35a5.224,5.224,0,0,1-3.138.861,3.8,3.8,0,0,1-3-1.226,5.018,5.018,0,0,1-1.09-3.45,4.921,4.921,0,0,1,1.191-3.423,3.819,3.819,0,0,1,2.958-1.323,3.384,3.384,0,0,1,2.733,1.143,4.764,4.764,0,0,1,.967,3.173Zm-1.477-1.222a2.933,2.933,0,0,0-.6-1.942A2.051,2.051,0,0,0,104.107,11a2.328,2.328,0,0,0-1.731.729,3.31,3.31,0,0,0-.879,1.907ZM117.484,19h-1.441V13.867q0-2.865-2.092-2.865a2.269,2.269,0,0,0-1.789.813,3.013,3.013,0,0,0-.708,2.052V19h-1.441V10h1.441v1.494h.035a3.248,3.248,0,0,1,2.953-1.705,2.753,2.753,0,0,1,2.259.954,4.248,4.248,0,0,1,.782,2.755Zm6.478.211a4.175,4.175,0,0,1-3.186-1.261,4.672,4.672,0,0,1-1.191-3.344,4.867,4.867,0,0,1,1.239-3.542,4.455,4.455,0,0,1,3.349-1.274,4.037,4.037,0,0,1,3.142,1.239,4.914,4.914,0,0,1,1.129,3.437,4.835,4.835,0,0,1-1.217,3.45A4.265,4.265,0,0,1,123.961,19.211ZM124.067,11a2.742,2.742,0,0,0-2.2.945,3.88,3.88,0,0,0-.809,2.606,3.67,3.67,0,0,0,.817,2.522,2.778,2.778,0,0,0,2.188.923,2.635,2.635,0,0,0,2.149-.905,3.928,3.928,0,0,0,.751-2.575,4,4,0,0,0-.751-2.6A2.623,2.623,0,0,0,124.067,11Zm6.135,7.673V17.128a4.266,4.266,0,0,0,2.593.87q1.9,0,1.9-1.266a1.1,1.1,0,0,0-.163-.611,1.62,1.62,0,0,0-.439-.444,3.383,3.383,0,0,0-.65-.347q-.374-.154-.8-.321a10.357,10.357,0,0,1-1.05-.479,3.173,3.173,0,0,1-.756-.545,2.028,2.028,0,0,1-.457-.69,2.441,2.441,0,0,1-.154-.905,2.15,2.15,0,0,1,.29-1.121,2.572,2.572,0,0,1,.773-.817,3.607,3.607,0,0,1,1.1-.5,4.893,4.893,0,0,1,1.279-.167,5.164,5.164,0,0,1,2.092.4v1.459a4.077,4.077,0,0,0-2.285-.65,2.671,2.671,0,0,0-.729.092,1.786,1.786,0,0,0-.558.259,1.2,1.2,0,0,0-.36.4,1.053,1.053,0,0,0-.127.514,1.233,1.233,0,0,0,.127.589,1.3,1.3,0,0,0,.374.422,2.855,2.855,0,0,0,.6.334q.352.149.8.325a11.131,11.131,0,0,1,1.072.47,3.678,3.678,0,0,1,.809.545,2.129,2.129,0,0,1,.514.7,2.254,2.254,0,0,1,.18.94,2.217,2.217,0,0,1-.294,1.16,2.523,2.523,0,0,1-.787.817,3.6,3.6,0,0,1-1.134.483,5.6,5.6,0,0,1-1.345.158A5.106,5.106,0,0,1,130.2,18.675Zm16.875.536a4.175,4.175,0,0,1-3.186-1.261,4.672,4.672,0,0,1-1.191-3.344,4.867,4.867,0,0,1,1.239-3.542,4.455,4.455,0,0,1,3.349-1.274,4.037,4.037,0,0,1,3.142,1.239,4.914,4.914,0,0,1,1.129,3.437,4.835,4.835,0,0,1-1.217,3.45A4.265,4.265,0,0,1,147.077,19.211ZM147.182,11a2.742,2.742,0,0,0-2.2.945,3.88,3.88,0,0,0-.809,2.606,3.67,3.67,0,0,0,.817,2.522,2.778,2.778,0,0,0,2.188.923,2.635,2.635,0,0,0,2.149-.905,3.928,3.928,0,0,0,.751-2.575,4,4,0,0,0-.751-2.6A2.623,2.623,0,0,0,147.182,11Zm8.156,6.7H155.3V19h-1.441V5.676H155.3v5.906h.035a3.408,3.408,0,0,1,3.111-1.793A3.3,3.3,0,0,1,161.161,11a4.99,4.99,0,0,1,.98,3.239,5.578,5.578,0,0,1-1.1,3.617,3.658,3.658,0,0,1-3.006,1.358A2.96,2.96,0,0,1,155.338,17.7Zm-.035-3.63v1.257a2.676,2.676,0,0,0,.725,1.894A2.587,2.587,0,0,0,159.922,17a4.6,4.6,0,0,0,.743-2.786,3.629,3.629,0,0,0-.694-2.355A2.3,2.3,0,0,0,158.089,11a2.554,2.554,0,0,0-2.021.875A3.211,3.211,0,0,0,155.3,14.069Zm8.6,4.605V17.128a4.266,4.266,0,0,0,2.593.87q1.9,0,1.9-1.266a1.1,1.1,0,0,0-.163-.611,1.62,1.62,0,0,0-.439-.444,3.383,3.383,0,0,0-.65-.347q-.374-.154-.8-.321a10.357,10.357,0,0,1-1.05-.479,3.173,3.173,0,0,1-.756-.545,2.028,2.028,0,0,1-.457-.69,2.441,2.441,0,0,1-.154-.905,2.15,2.15,0,0,1,.29-1.121,2.572,2.572,0,0,1,.773-.817,3.607,3.607,0,0,1,1.1-.5,4.893,4.893,0,0,1,1.279-.167,5.164,5.164,0,0,1,2.092.4v1.459a4.077,4.077,0,0,0-2.285-.65,2.671,2.671,0,0,0-.729.092,1.786,1.786,0,0,0-.558.259,1.2,1.2,0,0,0-.36.4,1.053,1.053,0,0,0-.127.514,1.233,1.233,0,0,0,.127.589,1.3,1.3,0,0,0,.374.422,2.855,2.855,0,0,0,.6.334q.352.149.8.325a11.131,11.131,0,0,1,1.072.47,3.678,3.678,0,0,1,.809.545,2.129,2.129,0,0,1,.514.7,2.254,2.254,0,0,1,.18.94,2.217,2.217,0,0,1-.294,1.16,2.523,2.523,0,0,1-.787.817,3.6,3.6,0,0,1-1.134.483,5.6,5.6,0,0,1-1.345.158A5.106,5.106,0,0,1,163.9,18.675Zm15.416-3.814H172.96a3.366,3.366,0,0,0,.809,2.32A2.788,2.788,0,0,0,175.9,18a4.422,4.422,0,0,0,2.795-1V18.35a5.224,5.224,0,0,1-3.138.861,3.8,3.8,0,0,1-3-1.226,5.018,5.018,0,0,1-1.09-3.45,4.921,4.921,0,0,1,1.191-3.423,3.819,3.819,0,0,1,2.958-1.323,3.384,3.384,0,0,1,2.733,1.143,4.764,4.764,0,0,1,.967,3.173Zm-1.477-1.222a2.933,2.933,0,0,0-.6-1.942A2.051,2.051,0,0,0,175.588,11a2.328,2.328,0,0,0-1.731.729,3.31,3.31,0,0,0-.879,1.907Zm8.35-2.18a1.763,1.763,0,0,0-1.09-.29,1.839,1.839,0,0,0-1.542.87,4.023,4.023,0,0,0-.62,2.373V19h-1.441V10h1.441v1.854h.035a3.143,3.143,0,0,1,.94-1.481,2.144,2.144,0,0,1,1.415-.532,2.353,2.353,0,0,1,.861.123ZM194.828,10l-3.586,9h-1.415l-3.41-9H188l2.285,6.539A5.869,5.869,0,0,1,190.6,17.8h.035a5.943,5.943,0,0,1,.281-1.222L193.307,10Zm7.989,9h-1.441V17.594h-.035a3.018,3.018,0,0,1-2.769,1.617,2.959,2.959,0,0,1-2.1-.712,2.466,2.466,0,0,1-.76-1.89q0-2.522,2.971-2.936l2.7-.378q0-2.294-1.854-2.294a4.431,4.431,0,0,0-2.936,1.107V10.633a5.577,5.577,0,0,1,3.059-.844q3.173,0,3.173,3.357Zm-1.441-4.553-2.171.3a3.525,3.525,0,0,0-1.512.5,1.432,1.432,0,0,0-.51,1.261,1.374,1.374,0,0,0,.47,1.077,1.817,1.817,0,0,0,1.252.417,2.314,2.314,0,0,0,1.771-.751,2.685,2.685,0,0,0,.7-1.9Zm5.634,3.252h-.035V19h-1.441V5.676h1.441v5.906h.035a3.408,3.408,0,0,1,3.111-1.793A3.3,3.3,0,0,1,212.832,11a4.99,4.99,0,0,1,.98,3.239,5.578,5.578,0,0,1-1.1,3.617,3.658,3.658,0,0,1-3.006,1.358A2.96,2.96,0,0,1,207.009,17.7Zm-.035-3.63v1.257a2.676,2.676,0,0,0,.725,1.894A2.587,2.587,0,0,0,211.593,17a4.6,4.6,0,0,0,.743-2.786,3.629,3.629,0,0,0-.694-2.355A2.3,2.3,0,0,0,209.76,11a2.554,2.554,0,0,0-2.021.875A3.211,3.211,0,0,0,206.974,14.069ZM217.556,19h-1.441V5.676h1.441Zm10.151-4.14h-6.354a3.366,3.366,0,0,0,.809,2.32,2.788,2.788,0,0,0,2.127.817,4.422,4.422,0,0,0,2.795-1V18.35a5.224,5.224,0,0,1-3.138.861,3.8,3.8,0,0,1-3-1.226,5.018,5.018,0,0,1-1.09-3.45,4.921,4.921,0,0,1,1.191-3.423,3.819,3.819,0,0,1,2.958-1.323,3.384,3.384,0,0,1,2.733,1.143,4.764,4.764,0,0,1,.967,3.173Zm-1.477-1.222a2.933,2.933,0,0,0-.6-1.942A2.051,2.051,0,0,0,223.981,11a2.328,2.328,0,0,0-1.731.729,3.31,3.31,0,0,0-.879,1.907ZM238.6,21.865h-1.283a11.232,11.232,0,0,1-2.725-7.673,11.658,11.658,0,0,1,2.725-7.8h1.3a11.845,11.845,0,0,0-2.76,7.778A11.638,11.638,0,0,0,238.6,21.865Zm7.787-3.278a4.684,4.684,0,0,1-2.461.624,4.074,4.074,0,0,1-3.107-1.252,4.539,4.539,0,0,1-1.182-3.248,4.99,4.99,0,0,1,1.274-3.573,4.458,4.458,0,0,1,3.4-1.349,4.735,4.735,0,0,1,2.092.439v1.477a3.665,3.665,0,0,0-2.145-.7,2.9,2.9,0,0,0-2.263.989,3.752,3.752,0,0,0-.883,2.6,3.573,3.573,0,0,0,.831,2.5,2.863,2.863,0,0,0,2.228.914,3.613,3.613,0,0,0,2.215-.782Zm5.941.624a4.175,4.175,0,0,1-3.186-1.261,4.672,4.672,0,0,1-1.191-3.344,4.867,4.867,0,0,1,1.239-3.542,4.455,4.455,0,0,1,3.349-1.274,4.037,4.037,0,0,1,3.142,1.239,4.914,4.914,0,0,1,1.129,3.437,4.835,4.835,0,0,1-1.217,3.45A4.265,4.265,0,0,1,252.326,19.211ZM252.431,11a2.742,2.742,0,0,0-2.2.945,3.88,3.88,0,0,0-.809,2.606,3.67,3.67,0,0,0,.817,2.522,2.778,2.778,0,0,0,2.188.923,2.635,2.635,0,0,0,2.149-.905,3.928,3.928,0,0,0,.751-2.575,4,4,0,0,0-.751-2.6A2.623,2.623,0,0,0,252.431,11Zm19.459,8h-1.441V13.832a3.9,3.9,0,0,0-.461-2.162A1.75,1.75,0,0,0,268.436,11a1.921,1.921,0,0,0-1.569.844,3.228,3.228,0,0,0-.646,2.021V19H264.78V13.656q0-2.654-2.048-2.654a1.9,1.9,0,0,0-1.564.8,3.288,3.288,0,0,0-.615,2.07V19h-1.441V10h1.441v1.424h.035a3.058,3.058,0,0,1,2.795-1.635,2.6,2.6,0,0,1,2.549,1.863,3.212,3.212,0,0,1,2.988-1.863q2.971,0,2.971,3.665Zm4.2-1.3h-.035v5.44h-1.441V10h1.441v1.582h.035A3.408,3.408,0,0,1,279.2,9.789,3.3,3.3,0,0,1,281.918,11a5.005,5.005,0,0,1,.976,3.239,5.578,5.578,0,0,1-1.1,3.617,3.658,3.658,0,0,1-3.006,1.358A3.011,3.011,0,0,1,276.091,17.7Zm-.035-3.63v1.257a2.676,2.676,0,0,0,.725,1.894A2.587,2.587,0,0,0,280.675,17a4.6,4.6,0,0,0,.743-2.786,3.629,3.629,0,0,0-.694-2.355A2.3,2.3,0,0,0,278.842,11a2.554,2.554,0,0,0-2.021.875A3.211,3.211,0,0,0,276.056,14.069Zm16.374.791h-6.354a3.366,3.366,0,0,0,.809,2.32,2.788,2.788,0,0,0,2.127.817,4.422,4.422,0,0,0,2.795-1V18.35a5.224,5.224,0,0,1-3.138.861,3.8,3.8,0,0,1-3-1.226,5.018,5.018,0,0,1-1.09-3.45,4.921,4.921,0,0,1,1.191-3.423,3.819,3.819,0,0,1,2.958-1.323,3.384,3.384,0,0,1,2.733,1.143,4.764,4.764,0,0,1,.967,3.173Zm-1.477-1.222a2.933,2.933,0,0,0-.6-1.942A2.051,2.051,0,0,0,288.7,11a2.328,2.328,0,0,0-1.731.729,3.31,3.31,0,0,0-.879,1.907Zm7.831,5.273a2.779,2.779,0,0,1-1.345.281q-2.364,0-2.364-2.637V11.23h-1.547V10h1.547V7.8l1.441-.466V10h2.268v1.23h-2.268V16.3a2.1,2.1,0,0,0,.308,1.292,1.228,1.228,0,0,0,1.02.387,1.515,1.515,0,0,0,.94-.3Zm9.158-4.052h-6.354a3.366,3.366,0,0,0,.809,2.32,2.788,2.788,0,0,0,2.127.817,4.422,4.422,0,0,0,2.795-1V18.35a5.224,5.224,0,0,1-3.138.861,3.8,3.8,0,0,1-3-1.226,5.018,5.018,0,0,1-1.09-3.45,4.921,4.921,0,0,1,1.191-3.423,3.819,3.819,0,0,1,2.958-1.323,3.384,3.384,0,0,1,2.733,1.143,4.764,4.764,0,0,1,.967,3.173Zm-1.477-1.222a2.933,2.933,0,0,0-.6-1.942A2.051,2.051,0,0,0,304.216,11a2.328,2.328,0,0,0-1.731.729,3.31,3.31,0,0,0-.879,1.907ZM317.593,19h-1.441V13.867q0-2.865-2.092-2.865a2.269,2.269,0,0,0-1.789.813,3.013,3.013,0,0,0-.708,2.052V19h-1.441V10h1.441v1.494h.035a3.248,3.248,0,0,1,2.953-1.705,2.753,2.753,0,0,1,2.259.954,4.248,4.248,0,0,1,.782,2.755Zm8.851-.413a4.684,4.684,0,0,1-2.461.624,4.074,4.074,0,0,1-3.107-1.252,4.539,4.539,0,0,1-1.182-3.248,4.99,4.99,0,0,1,1.274-3.573,4.458,4.458,0,0,1,3.4-1.349,4.735,4.735,0,0,1,2.092.439v1.477a3.665,3.665,0,0,0-2.145-.7,2.9,2.9,0,0,0-2.263.989,3.752,3.752,0,0,0-.883,2.6,3.573,3.573,0,0,0,.831,2.5,2.863,2.863,0,0,0,2.228.914,3.613,3.613,0,0,0,2.215-.782Zm2.918-10.872a.913.913,0,0,1-.659-.264.89.89,0,0,1-.272-.668.923.923,0,0,1,.932-.94.931.931,0,0,1,.672.268.939.939,0,0,1,0,1.332A.923.923,0,0,1,329.362,7.715Zm.7,11.285h-1.441V10h1.441Zm9.36,0h-1.441V17.594h-.035a3.018,3.018,0,0,1-2.769,1.617,2.959,2.959,0,0,1-2.1-.712,2.466,2.466,0,0,1-.76-1.89q0-2.522,2.971-2.936l2.7-.378q0-2.294-1.854-2.294a4.431,4.431,0,0,0-2.936,1.107V10.633a5.577,5.577,0,0,1,3.059-.844q3.173,0,3.173,3.357Zm-1.441-4.553-2.171.3a3.525,3.525,0,0,0-1.512.5,1.432,1.432,0,0,0-.51,1.261,1.374,1.374,0,0,0,.47,1.077,1.817,1.817,0,0,0,1.252.417,2.314,2.314,0,0,0,1.771-.751,2.685,2.685,0,0,0,.7-1.9Zm4.192,7.418h-1.283a11.638,11.638,0,0,0,2.742-7.69,11.845,11.845,0,0,0-2.76-7.778h1.3a11.611,11.611,0,0,1,2.742,7.8A11.188,11.188,0,0,1,342.176,21.865ZM358.946,19H357.5V17.594h-.035a3.018,3.018,0,0,1-2.769,1.617,2.959,2.959,0,0,1-2.1-.712,2.466,2.466,0,0,1-.76-1.89q0-2.522,2.971-2.936l2.7-.378Q357.5,11,355.65,11a4.431,4.431,0,0,0-2.936,1.107V10.633a5.577,5.577,0,0,1,3.059-.844q3.173,0,3.173,3.357ZM357.5,14.447l-2.171.3a3.525,3.525,0,0,0-1.512.5,1.432,1.432,0,0,0-.51,1.261,1.374,1.374,0,0,0,.47,1.077,1.817,1.817,0,0,0,1.252.417,2.314,2.314,0,0,0,1.771-.751,2.685,2.685,0,0,0,.7-1.9ZM368.034,19h-1.441V5.676h1.441Zm6.68.211a4.175,4.175,0,0,1-3.186-1.261,4.672,4.672,0,0,1-1.191-3.344,4.867,4.867,0,0,1,1.239-3.542,4.455,4.455,0,0,1,3.349-1.274,4.037,4.037,0,0,1,3.142,1.239,4.914,4.914,0,0,1,1.129,3.437,4.835,4.835,0,0,1-1.217,3.45A4.265,4.265,0,0,1,374.713,19.211ZM374.819,11a2.742,2.742,0,0,0-2.2.945,3.88,3.88,0,0,0-.809,2.606,3.67,3.67,0,0,0,.817,2.522,2.778,2.778,0,0,0,2.188.923,2.635,2.635,0,0,0,2.149-.905,3.928,3.928,0,0,0,.751-2.575,4,4,0,0,0-.751-2.6A2.623,2.623,0,0,0,374.819,11Zm24.39,8h-1.441V13.832a3.9,3.9,0,0,0-.461-2.162A1.75,1.75,0,0,0,395.754,11a1.921,1.921,0,0,0-1.569.844,3.228,3.228,0,0,0-.646,2.021V19H392.1V13.656Q392.1,11,390.05,11a1.9,1.9,0,0,0-1.564.8,3.288,3.288,0,0,0-.615,2.07V19h-1.441V10h1.441v1.424h.035A3.058,3.058,0,0,1,390.7,9.789a2.6,2.6,0,0,1,2.549,1.863,3.212,3.212,0,0,1,2.988-1.863q2.971,0,2.971,3.665Zm9.167,0h-1.441V17.594H406.9a3.018,3.018,0,0,1-2.769,1.617,2.959,2.959,0,0,1-2.1-.712,2.466,2.466,0,0,1-.76-1.89q0-2.522,2.971-2.936l2.7-.378q0-2.294-1.854-2.294a4.431,4.431,0,0,0-2.936,1.107V10.633a5.577,5.577,0,0,1,3.059-.844q3.173,0,3.173,3.357Zm-1.441-4.553-2.171.3a3.525,3.525,0,0,0-1.512.5,1.432,1.432,0,0,0-.51,1.261,1.374,1.374,0,0,0,.47,1.077,1.817,1.817,0,0,0,1.252.417,2.314,2.314,0,0,0,1.771-.751,2.685,2.685,0,0,0,.7-1.9Zm.193-9.035-2.3,2.883h-1.116l1.96-2.883Zm3.419,13.263V17.128a4.266,4.266,0,0,0,2.593.87q1.9,0,1.9-1.266a1.1,1.1,0,0,0-.163-.611,1.62,1.62,0,0,0-.439-.444,3.383,3.383,0,0,0-.65-.347q-.374-.154-.8-.321a10.357,10.357,0,0,1-1.05-.479,3.173,3.173,0,0,1-.756-.545,2.028,2.028,0,0,1-.457-.69,2.441,2.441,0,0,1-.154-.905,2.15,2.15,0,0,1,.29-1.121,2.572,2.572,0,0,1,.773-.817,3.607,3.607,0,0,1,1.1-.5,4.893,4.893,0,0,1,1.279-.167,5.164,5.164,0,0,1,2.092.4v1.459a4.077,4.077,0,0,0-2.285-.65,2.671,2.671,0,0,0-.729.092,1.786,1.786,0,0,0-.558.259,1.2,1.2,0,0,0-.36.4,1.053,1.053,0,0,0-.127.514,1.233,1.233,0,0,0,.127.589,1.3,1.3,0,0,0,.374.422,2.855,2.855,0,0,0,.6.334q.352.149.8.325a11.131,11.131,0,0,1,1.072.47,3.678,3.678,0,0,1,.809.545,2.129,2.129,0,0,1,.514.7,2.254,2.254,0,0,1,.18.94,2.217,2.217,0,0,1-.294,1.16,2.523,2.523,0,0,1-.787.817,3.6,3.6,0,0,1-1.134.483,5.6,5.6,0,0,1-1.345.158A5.106,5.106,0,0,1,410.546,18.675ZM430.735,10l-3.586,9h-1.415l-3.41-9h1.582l2.285,6.539a5.869,5.869,0,0,1,.316,1.257h.035a5.943,5.943,0,0,1,.281-1.222L429.214,10Zm2.285-2.285a.913.913,0,0,1-.659-.264.89.89,0,0,1-.272-.668.923.923,0,0,1,.932-.94.931.931,0,0,1,.672.268.939.939,0,0,1,0,1.332A.923.923,0,0,1,433.02,7.715Zm.7,11.285h-1.441V10h1.441Zm2.373-.325V17.128a4.266,4.266,0,0,0,2.593.87q1.9,0,1.9-1.266a1.1,1.1,0,0,0-.163-.611,1.62,1.62,0,0,0-.439-.444,3.383,3.383,0,0,0-.65-.347q-.374-.154-.8-.321a10.357,10.357,0,0,1-1.05-.479,3.173,3.173,0,0,1-.756-.545,2.028,2.028,0,0,1-.457-.69,2.441,2.441,0,0,1-.154-.905,2.15,2.15,0,0,1,.29-1.121,2.572,2.572,0,0,1,.773-.817,3.607,3.607,0,0,1,1.1-.5,4.893,4.893,0,0,1,1.279-.167,5.164,5.164,0,0,1,2.092.4v1.459a4.077,4.077,0,0,0-2.285-.65,2.671,2.671,0,0,0-.729.092,1.786,1.786,0,0,0-.558.259,1.2,1.2,0,0,0-.36.4,1.053,1.053,0,0,0-.127.514,1.233,1.233,0,0,0,.127.589,1.3,1.3,0,0,0,.374.422,2.855,2.855,0,0,0,.6.334q.352.149.8.325a11.131,11.131,0,0,1,1.072.47,3.678,3.678,0,0,1,.809.545,2.129,2.129,0,0,1,.514.7,2.254,2.254,0,0,1,.18.94,2.217,2.217,0,0,1-.294,1.16,2.523,2.523,0,0,1-.787.817,3.6,3.6,0,0,1-1.134.483,5.6,5.6,0,0,1-1.345.158A5.106,5.106,0,0,1,436.1,18.675Zm8.921-10.96a.913.913,0,0,1-.659-.264.89.89,0,0,1-.272-.668.923.923,0,0,1,.932-.94.931.931,0,0,1,.672.268.939.939,0,0,1,0,1.332A.923.923,0,0,1,445.017,7.715ZM445.72,19h-1.441V10h1.441Zm4.395-1.3h-.035V19h-1.441V5.676h1.441v5.906h.035a3.408,3.408,0,0,1,3.111-1.793A3.3,3.3,0,0,1,455.938,11a4.99,4.99,0,0,1,.98,3.239,5.578,5.578,0,0,1-1.1,3.617,3.658,3.658,0,0,1-3.006,1.358A2.96,2.96,0,0,1,450.115,17.7Zm-.035-3.63v1.257a2.676,2.676,0,0,0,.725,1.894A2.587,2.587,0,0,0,454.7,17a4.6,4.6,0,0,0,.743-2.786,3.629,3.629,0,0,0-.694-2.355A2.3,2.3,0,0,0,452.866,11a2.554,2.554,0,0,0-2.021.875A3.211,3.211,0,0,0,450.08,14.069ZM460.662,19H459.22V5.676h1.441Zm10.151-4.14h-6.354a3.366,3.366,0,0,0,.809,2.32,2.788,2.788,0,0,0,2.127.817,4.422,4.422,0,0,0,2.795-1V18.35a5.224,5.224,0,0,1-3.138.861,3.8,3.8,0,0,1-3-1.226,5.018,5.018,0,0,1-1.09-3.45,4.921,4.921,0,0,1,1.191-3.423,3.819,3.819,0,0,1,2.958-1.323,3.384,3.384,0,0,1,2.733,1.143,4.764,4.764,0,0,1,.967,3.173Zm-1.477-1.222a2.933,2.933,0,0,0-.6-1.942A2.051,2.051,0,0,0,467.086,11a2.328,2.328,0,0,0-1.731.729,3.31,3.31,0,0,0-.879,1.907ZM481.7,21.865h-1.283a11.232,11.232,0,0,1-2.725-7.673,11.658,11.658,0,0,1,2.725-7.8h1.3a11.845,11.845,0,0,0-2.76,7.778A11.638,11.638,0,0,0,481.7,21.865Zm7.787-3.278a4.684,4.684,0,0,1-2.461.624,4.074,4.074,0,0,1-3.107-1.252,4.539,4.539,0,0,1-1.182-3.248,4.99,4.99,0,0,1,1.274-3.573,4.458,4.458,0,0,1,3.4-1.349,4.735,4.735,0,0,1,2.092.439v1.477a3.665,3.665,0,0,0-2.145-.7,2.9,2.9,0,0,0-2.263.989,3.752,3.752,0,0,0-.883,2.6,3.573,3.573,0,0,0,.831,2.5,2.863,2.863,0,0,0,2.228.914,3.613,3.613,0,0,0,2.215-.782Zm5.941.624a4.175,4.175,0,0,1-3.186-1.261,4.672,4.672,0,0,1-1.191-3.344,4.867,4.867,0,0,1,1.239-3.542,4.455,4.455,0,0,1,3.349-1.274,4.037,4.037,0,0,1,3.142,1.239,4.914,4.914,0,0,1,1.129,3.437,4.835,4.835,0,0,1-1.217,3.45A4.265,4.265,0,0,1,495.431,19.211ZM495.537,11a2.742,2.742,0,0,0-2.2.945,3.88,3.88,0,0,0-.809,2.606,3.67,3.67,0,0,0,.817,2.522,2.778,2.778,0,0,0,2.188.923,2.635,2.635,0,0,0,2.149-.905,3.928,3.928,0,0,0,.751-2.575,4,4,0,0,0-.751-2.6A2.623,2.623,0,0,0,495.537,11Zm14.15,8h-1.441V13.867q0-2.865-2.092-2.865a2.269,2.269,0,0,0-1.789.813,3.013,3.013,0,0,0-.708,2.052V19h-1.441V10h1.441v1.494h.035a3.248,3.248,0,0,1,2.953-1.705,2.753,2.753,0,0,1,2.259.954,4.248,4.248,0,0,1,.782,2.755Zm10.4,0h-1.441V17.471h-.035a3.327,3.327,0,0,1-3.094,1.74A3.362,3.362,0,0,1,512.8,18a4.958,4.958,0,0,1-1.015-3.292,5.394,5.394,0,0,1,1.125-3.577,3.71,3.71,0,0,1,3-1.345,2.885,2.885,0,0,1,2.7,1.459h.035V5.676h1.441Zm-1.441-4.069V13.6a2.575,2.575,0,0,0-.721-1.846A2.417,2.417,0,0,0,516.094,11a2.489,2.489,0,0,0-2.074.967,4.237,4.237,0,0,0-.756,2.672,3.81,3.81,0,0,0,.725,2.457,2.37,2.37,0,0,0,1.947.9,2.462,2.462,0,0,0,1.956-.87A3.242,3.242,0,0,0,518.643,14.931ZM530.28,19h-1.441V17.576H528.8a2.96,2.96,0,0,1-2.777,1.635q-3.217,0-3.217-3.832V10h1.433v5.15q0,2.848,2.18,2.848a2.205,2.205,0,0,0,1.736-.778,2.976,2.976,0,0,0,.681-2.035V10h1.441Zm9.044-.413a4.684,4.684,0,0,1-2.461.624,4.074,4.074,0,0,1-3.107-1.252,4.539,4.539,0,0,1-1.182-3.248,4.99,4.99,0,0,1,1.274-3.573,4.458,4.458,0,0,1,3.4-1.349,4.735,4.735,0,0,1,2.092.439v1.477A3.665,3.665,0,0,0,537.2,11a2.9,2.9,0,0,0-2.263.989,3.752,3.752,0,0,0-.883,2.6,3.573,3.573,0,0,0,.831,2.5,2.863,2.863,0,0,0,2.228.914,3.613,3.613,0,0,0,2.215-.782Zm6.354.325a2.779,2.779,0,0,1-1.345.281q-2.364,0-2.364-2.637V11.23h-1.547V10h1.547V7.8l1.441-.466V10h2.268v1.23h-2.268V16.3a2.1,2.1,0,0,0,.308,1.292,1.228,1.228,0,0,0,1.02.387,1.515,1.515,0,0,0,.94-.3Zm8.367.088H552.6V17.594h-.035a3.018,3.018,0,0,1-2.769,1.617,2.959,2.959,0,0,1-2.1-.712,2.466,2.466,0,0,1-.76-1.89q0-2.522,2.971-2.936l2.7-.378Q552.6,11,550.75,11a4.431,4.431,0,0,0-2.936,1.107V10.633a5.577,5.577,0,0,1,3.059-.844q3.173,0,3.173,3.357ZM552.6,14.447l-2.171.3a3.525,3.525,0,0,0-1.512.5,1.432,1.432,0,0,0-.51,1.261,1.374,1.374,0,0,0,.47,1.077,1.817,1.817,0,0,0,1.252.417,2.314,2.314,0,0,0,1.771-.751,2.685,2.685,0,0,0,.7-1.9Zm4.192,7.418h-1.283a11.638,11.638,0,0,0,2.742-7.69A11.845,11.845,0,0,0,555.5,6.4h1.3a11.611,11.611,0,0,1,2.742,7.8A11.188,11.188,0,0,1,556.8,21.865ZM573.566,19h-1.441V17.594h-.035a3.018,3.018,0,0,1-2.769,1.617,2.959,2.959,0,0,1-2.1-.712,2.466,2.466,0,0,1-.76-1.89q0-2.522,2.971-2.936l2.7-.378q0-2.294-1.854-2.294a4.431,4.431,0,0,0-2.936,1.107V10.633a5.577,5.577,0,0,1,3.059-.844q3.173,0,3.173,3.357Zm-1.441-4.553-2.171.3a3.525,3.525,0,0,0-1.512.5,1.432,1.432,0,0,0-.51,1.261,1.374,1.374,0,0,0,.47,1.077,1.817,1.817,0,0,0,1.252.417,2.314,2.314,0,0,0,1.771-.751,2.685,2.685,0,0,0,.7-1.9Zm5.6,4.553h-1.441V5.676h1.441Zm15.319,0H591.6V13.814Q591.6,11,589.509,11a2.28,2.28,0,0,0-1.775.813,3.03,3.03,0,0,0-.721,2.087V19h-1.441V5.676h1.441v5.818h.035A3.273,3.273,0,0,1,590,9.789q3.041,0,3.041,3.665Zm9.158,0h-1.441V17.594h-.035a3.018,3.018,0,0,1-2.769,1.617,2.959,2.959,0,0,1-2.1-.712,2.466,2.466,0,0,1-.76-1.89q0-2.522,2.971-2.936l2.7-.378Q600.759,11,598.9,11a4.431,4.431,0,0,0-2.936,1.107V10.633a5.577,5.577,0,0,1,3.059-.844q3.173,0,3.173,3.357Zm-1.441-4.553-2.171.3a3.525,3.525,0,0,0-1.512.5,1.432,1.432,0,0,0-.51,1.261,1.374,1.374,0,0,0,.47,1.077A1.817,1.817,0,0,0,598.29,18a2.314,2.314,0,0,0,1.771-.751,2.685,2.685,0,0,0,.7-1.9Zm5.634,3.252h-.035V19h-1.441V5.676h1.441v5.906h.035A3.408,3.408,0,0,1,609.5,9.789,3.3,3.3,0,0,1,612.216,11a4.99,4.99,0,0,1,.98,3.239,5.578,5.578,0,0,1-1.1,3.617,3.658,3.658,0,0,1-3.006,1.358A2.96,2.96,0,0,1,606.393,17.7Zm-.035-3.63v1.257a2.676,2.676,0,0,0,.725,1.894A2.587,2.587,0,0,0,610.977,17a4.6,4.6,0,0,0,.743-2.786,3.629,3.629,0,0,0-.694-2.355A2.3,2.3,0,0,0,609.144,11a2.554,2.554,0,0,0-2.021.875A3.211,3.211,0,0,0,606.358,14.069ZM616.94,19H615.5V5.676h1.441Zm9.36,0h-1.441V17.594h-.035a3.018,3.018,0,0,1-2.769,1.617,2.959,2.959,0,0,1-2.1-.712,2.466,2.466,0,0,1-.76-1.89q0-2.522,2.971-2.936l2.7-.378Q624.859,11,623,11a4.431,4.431,0,0,0-2.936,1.107V10.633a5.577,5.577,0,0,1,3.059-.844q3.173,0,3.173,3.357Zm-1.441-4.553-2.171.3a3.525,3.525,0,0,0-1.512.5,1.432,1.432,0,0,0-.51,1.261,1.374,1.374,0,0,0,.47,1.077,1.817,1.817,0,0,0,1.252.417,2.314,2.314,0,0,0,1.771-.751,2.685,2.685,0,0,0,.7-1.9Zm8.851-2.988a1.763,1.763,0,0,0-1.09-.29,1.839,1.839,0,0,0-1.542.87,4.023,4.023,0,0,0-.62,2.373V19h-1.441V10h1.441v1.854h.035a3.143,3.143,0,0,1,.94-1.481,2.144,2.144,0,0,1,1.415-.532,2.353,2.353,0,0,1,.861.123ZM190.517,41h-1.441V39.471h-.035a3.327,3.327,0,0,1-3.094,1.74A3.362,3.362,0,0,1,183.235,40a4.958,4.958,0,0,1-1.015-3.292,5.394,5.394,0,0,1,1.125-3.577,3.71,3.71,0,0,1,3-1.345,2.885,2.885,0,0,1,2.7,1.459h.035V27.676h1.441Zm-1.441-4.069V35.6a2.575,2.575,0,0,0-.721-1.846A2.417,2.417,0,0,0,186.526,33a2.489,2.489,0,0,0-2.074.967,4.237,4.237,0,0,0-.756,2.672,3.81,3.81,0,0,0,.725,2.457,2.37,2.37,0,0,0,1.947.9,2.462,2.462,0,0,0,1.956-.87A3.242,3.242,0,0,0,189.075,36.931Zm11.593-.07h-6.354a3.366,3.366,0,0,0,.809,2.32,2.788,2.788,0,0,0,2.127.817,4.422,4.422,0,0,0,2.795-1V40.35a5.224,5.224,0,0,1-3.138.861,3.8,3.8,0,0,1-3-1.226,5.018,5.018,0,0,1-1.09-3.45,4.921,4.921,0,0,1,1.191-3.423,3.819,3.819,0,0,1,2.958-1.323,3.384,3.384,0,0,1,2.733,1.143,4.764,4.764,0,0,1,.967,3.173Zm-1.477-1.222a2.933,2.933,0,0,0-.6-1.942A2.051,2.051,0,0,0,196.941,33a2.328,2.328,0,0,0-1.731.729,3.31,3.31,0,0,0-.879,1.907Zm14.722,4.948a4.684,4.684,0,0,1-2.461.624,4.074,4.074,0,0,1-3.107-1.252,4.539,4.539,0,0,1-1.182-3.248,4.99,4.99,0,0,1,1.274-3.573,4.458,4.458,0,0,1,3.4-1.349,4.735,4.735,0,0,1,2.092.439v1.477a3.665,3.665,0,0,0-2.145-.7,2.9,2.9,0,0,0-2.263.989,3.752,3.752,0,0,0-.883,2.6,3.573,3.573,0,0,0,.831,2.5A2.863,2.863,0,0,0,211.7,40a3.613,3.613,0,0,0,2.215-.782Zm5.941.624a4.175,4.175,0,0,1-3.186-1.261,4.672,4.672,0,0,1-1.191-3.344,4.867,4.867,0,0,1,1.239-3.542,4.455,4.455,0,0,1,3.349-1.274,4.037,4.037,0,0,1,3.142,1.239,4.914,4.914,0,0,1,1.129,3.437,4.835,4.835,0,0,1-1.217,3.45A4.265,4.265,0,0,1,219.854,41.211ZM219.96,33a2.742,2.742,0,0,0-2.2.945,3.88,3.88,0,0,0-.809,2.606,3.67,3.67,0,0,0,.817,2.522A2.778,2.778,0,0,0,219.96,40a2.635,2.635,0,0,0,2.149-.905,3.928,3.928,0,0,0,.751-2.575,4,4,0,0,0-.751-2.6A2.623,2.623,0,0,0,219.96,33Zm19.459,8h-1.441V35.832a3.9,3.9,0,0,0-.461-2.162A1.75,1.75,0,0,0,235.965,33a1.921,1.921,0,0,0-1.569.844,3.228,3.228,0,0,0-.646,2.021V41h-1.441V35.656q0-2.654-2.048-2.654a1.9,1.9,0,0,0-1.564.8,3.288,3.288,0,0,0-.615,2.07V41H226.64V32h1.441v1.424h.035a3.058,3.058,0,0,1,2.795-1.635,2.6,2.6,0,0,1,2.549,1.863,3.212,3.212,0,0,1,2.988-1.863q2.971,0,2.971,3.665Zm4.2-1.3h-.035v5.44h-1.441V32h1.441v1.582h.035a3.408,3.408,0,0,1,3.111-1.793A3.3,3.3,0,0,1,249.447,33a5.005,5.005,0,0,1,.976,3.239,5.578,5.578,0,0,1-1.1,3.617,3.658,3.658,0,0,1-3.006,1.358A3.011,3.011,0,0,1,243.62,39.7Zm-.035-3.63v1.257a2.676,2.676,0,0,0,.725,1.894A2.587,2.587,0,0,0,248.2,39a4.6,4.6,0,0,0,.743-2.786,3.629,3.629,0,0,0-.694-2.355A2.3,2.3,0,0,0,246.371,33a2.554,2.554,0,0,0-2.021.875A3.211,3.211,0,0,0,243.585,36.069Zm16.374.791H253.6a3.366,3.366,0,0,0,.809,2.32A2.788,2.788,0,0,0,256.54,40a4.422,4.422,0,0,0,2.795-1V40.35a5.224,5.224,0,0,1-3.138.861,3.8,3.8,0,0,1-3-1.226,5.018,5.018,0,0,1-1.09-3.45,4.921,4.921,0,0,1,1.191-3.423,3.819,3.819,0,0,1,2.958-1.323,3.384,3.384,0,0,1,2.733,1.143,4.764,4.764,0,0,1,.967,3.173Zm-1.477-1.222a2.933,2.933,0,0,0-.6-1.942A2.051,2.051,0,0,0,256.232,33a2.328,2.328,0,0,0-1.731.729,3.31,3.31,0,0,0-.879,1.907Zm7.831,5.273a2.779,2.779,0,0,1-1.345.281q-2.364,0-2.364-2.637V33.23h-1.547V32H262.6V29.8l1.441-.466V32h2.268v1.23h-2.268V38.3a2.1,2.1,0,0,0,.308,1.292,1.228,1.228,0,0,0,1.02.387,1.515,1.515,0,0,0,.94-.3Zm9.158-4.052h-6.354a3.366,3.366,0,0,0,.809,2.32,2.788,2.788,0,0,0,2.127.817,4.422,4.422,0,0,0,2.795-1V40.35a5.224,5.224,0,0,1-3.138.861,3.8,3.8,0,0,1-3-1.226,5.018,5.018,0,0,1-1.09-3.45,4.921,4.921,0,0,1,1.191-3.423,3.819,3.819,0,0,1,2.958-1.323,3.384,3.384,0,0,1,2.733,1.143,4.764,4.764,0,0,1,.967,3.173ZM274,35.639a2.933,2.933,0,0,0-.6-1.942A2.051,2.051,0,0,0,271.745,33a2.328,2.328,0,0,0-1.731.729,3.31,3.31,0,0,0-.879,1.907ZM285.122,41h-1.441V35.867q0-2.865-2.092-2.865a2.269,2.269,0,0,0-1.789.813,3.013,3.013,0,0,0-.708,2.052V41h-1.441V32h1.441v1.494h.035a3.248,3.248,0,0,1,2.953-1.705,2.753,2.753,0,0,1,2.259.954,4.248,4.248,0,0,1,.782,2.755Zm8.851-.413a4.684,4.684,0,0,1-2.461.624,4.074,4.074,0,0,1-3.107-1.252,4.539,4.539,0,0,1-1.182-3.248,4.99,4.99,0,0,1,1.274-3.573,4.458,4.458,0,0,1,3.4-1.349,4.735,4.735,0,0,1,2.092.439v1.477a3.665,3.665,0,0,0-2.145-.7,2.9,2.9,0,0,0-2.263.989,3.752,3.752,0,0,0-.883,2.6,3.573,3.573,0,0,0,.831,2.5,2.863,2.863,0,0,0,2.228.914,3.613,3.613,0,0,0,2.215-.782Zm2.918-10.872a.913.913,0,0,1-.659-.264.89.89,0,0,1-.272-.668.923.923,0,0,1,.932-.94.931.931,0,0,1,.672.268.939.939,0,0,1,0,1.332A.923.923,0,0,1,296.891,29.715Zm.7,11.285h-1.441V32h1.441Zm9.36,0h-1.441V39.594h-.035a3.018,3.018,0,0,1-2.769,1.617,2.959,2.959,0,0,1-2.1-.712,2.466,2.466,0,0,1-.76-1.89q0-2.522,2.971-2.936l2.7-.378q0-2.294-1.854-2.294a4.431,4.431,0,0,0-2.936,1.107V32.633a5.577,5.577,0,0,1,3.059-.844q3.173,0,3.173,3.357Zm-1.441-4.553-2.171.3a3.525,3.525,0,0,0-1.512.5,1.432,1.432,0,0,0-.51,1.261,1.374,1.374,0,0,0,.47,1.077,1.817,1.817,0,0,0,1.252.417,2.314,2.314,0,0,0,1.771-.751,2.685,2.685,0,0,0,.7-1.9Zm3.612,4.228V39.128a4.266,4.266,0,0,0,2.593.87q1.9,0,1.9-1.266a1.1,1.1,0,0,0-.163-.611,1.62,1.62,0,0,0-.439-.444,3.383,3.383,0,0,0-.65-.347q-.374-.154-.8-.321a10.357,10.357,0,0,1-1.05-.479,3.173,3.173,0,0,1-.756-.545,2.028,2.028,0,0,1-.457-.69,2.441,2.441,0,0,1-.154-.905,2.15,2.15,0,0,1,.29-1.121,2.572,2.572,0,0,1,.773-.817,3.607,3.607,0,0,1,1.1-.5,4.893,4.893,0,0,1,1.279-.167,5.164,5.164,0,0,1,2.092.4v1.459a4.077,4.077,0,0,0-2.285-.65,2.671,2.671,0,0,0-.729.092,1.786,1.786,0,0,0-.558.259,1.2,1.2,0,0,0-.36.4,1.053,1.053,0,0,0-.127.514,1.233,1.233,0,0,0,.127.589,1.3,1.3,0,0,0,.374.422,2.855,2.855,0,0,0,.6.334q.352.149.8.325a11.131,11.131,0,0,1,1.072.47,3.678,3.678,0,0,1,.809.545,2.129,2.129,0,0,1,.514.7,2.254,2.254,0,0,1,.18.94,2.217,2.217,0,0,1-.294,1.16,2.523,2.523,0,0,1-.787.817,3.6,3.6,0,0,1-1.134.483,5.6,5.6,0,0,1-1.345.158A5.106,5.106,0,0,1,309.125,40.675Zm12.568,0V39.128a4.266,4.266,0,0,0,2.593.87q1.9,0,1.9-1.266a1.1,1.1,0,0,0-.163-.611,1.62,1.62,0,0,0-.439-.444,3.383,3.383,0,0,0-.65-.347q-.374-.154-.8-.321a10.357,10.357,0,0,1-1.05-.479,3.173,3.173,0,0,1-.756-.545,2.028,2.028,0,0,1-.457-.69,2.441,2.441,0,0,1-.154-.905A2.15,2.15,0,0,1,322,33.27a2.572,2.572,0,0,1,.773-.817,3.607,3.607,0,0,1,1.1-.5,4.893,4.893,0,0,1,1.279-.167,5.164,5.164,0,0,1,2.092.4v1.459a4.077,4.077,0,0,0-2.285-.65,2.671,2.671,0,0,0-.729.092,1.786,1.786,0,0,0-.558.259,1.2,1.2,0,0,0-.36.4,1.053,1.053,0,0,0-.127.514,1.233,1.233,0,0,0,.127.589,1.3,1.3,0,0,0,.374.422,2.855,2.855,0,0,0,.6.334q.352.149.8.325a11.131,11.131,0,0,1,1.072.47,3.678,3.678,0,0,1,.809.545,2.129,2.129,0,0,1,.514.7,2.254,2.254,0,0,1,.18.94,2.217,2.217,0,0,1-.294,1.16,2.523,2.523,0,0,1-.787.817,3.6,3.6,0,0,1-1.134.483,5.6,5.6,0,0,1-1.345.158A5.106,5.106,0,0,1,321.693,40.675Zm11.944.536a4.175,4.175,0,0,1-3.186-1.261,4.672,4.672,0,0,1-1.191-3.344,4.867,4.867,0,0,1,1.239-3.542,4.455,4.455,0,0,1,3.349-1.274,4.037,4.037,0,0,1,3.142,1.239,4.914,4.914,0,0,1,1.129,3.437,4.835,4.835,0,0,1-1.217,3.45A4.265,4.265,0,0,1,333.638,41.211ZM333.743,33a2.742,2.742,0,0,0-2.2.945,3.88,3.88,0,0,0-.809,2.606,3.67,3.67,0,0,0,.817,2.522,2.778,2.778,0,0,0,2.188.923,2.635,2.635,0,0,0,2.149-.905,3.928,3.928,0,0,0,.751-2.575,4,4,0,0,0-.751-2.6A2.623,2.623,0,0,0,333.743,33Zm12.814,7.585a4.684,4.684,0,0,1-2.461.624,4.074,4.074,0,0,1-3.107-1.252,4.539,4.539,0,0,1-1.182-3.248,4.99,4.99,0,0,1,1.274-3.573,4.458,4.458,0,0,1,3.4-1.349,4.735,4.735,0,0,1,2.092.439v1.477a3.665,3.665,0,0,0-2.145-.7,2.9,2.9,0,0,0-2.263.989,3.752,3.752,0,0,0-.883,2.6,3.573,3.573,0,0,0,.831,2.5,2.863,2.863,0,0,0,2.228.914,3.613,3.613,0,0,0,2.215-.782Zm2.918-10.872a.913.913,0,0,1-.659-.264.89.89,0,0,1-.272-.668.923.923,0,0,1,.932-.94.931.931,0,0,1,.672.268.939.939,0,0,1,0,1.332A.923.923,0,0,1,349.476,29.715Zm.7,11.285h-1.441V32h1.441Zm6.68.211a4.175,4.175,0,0,1-3.186-1.261,4.672,4.672,0,0,1-1.191-3.344,4.867,4.867,0,0,1,1.239-3.542,4.455,4.455,0,0,1,3.349-1.274,4.037,4.037,0,0,1,3.142,1.239,4.914,4.914,0,0,1,1.129,3.437,4.835,4.835,0,0,1-1.217,3.45A4.265,4.265,0,0,1,356.858,41.211ZM356.964,33a2.742,2.742,0,0,0-2.2.945,3.88,3.88,0,0,0-.809,2.606,3.67,3.67,0,0,0,.817,2.522,2.778,2.778,0,0,0,2.188.923,2.635,2.635,0,0,0,2.149-.905,3.928,3.928,0,0,0,.751-2.575,4,4,0,0,0-.751-2.6A2.623,2.623,0,0,0,356.964,33Zm13.913,3.858h-6.354a3.366,3.366,0,0,0,.809,2.32,2.788,2.788,0,0,0,2.127.817,4.422,4.422,0,0,0,2.795-1V40.35a5.224,5.224,0,0,1-3.138.861,3.8,3.8,0,0,1-3-1.226,5.018,5.018,0,0,1-1.09-3.45,4.921,4.921,0,0,1,1.191-3.423,3.819,3.819,0,0,1,2.958-1.323,3.384,3.384,0,0,1,2.733,1.143,4.764,4.764,0,0,1,.967,3.173ZM369.4,35.639a2.933,2.933,0,0,0-.6-1.942A2.051,2.051,0,0,0,367.15,33a2.328,2.328,0,0,0-1.731.729,3.31,3.31,0,0,0-.879,1.907ZM385.836,41h-1.441V35.832a3.9,3.9,0,0,0-.461-2.162A1.75,1.75,0,0,0,382.382,33a1.921,1.921,0,0,0-1.569.844,3.228,3.228,0,0,0-.646,2.021V41h-1.441V35.656q0-2.654-2.048-2.654a1.9,1.9,0,0,0-1.564.8,3.288,3.288,0,0,0-.615,2.07V41h-1.441V32H374.5v1.424h.035a3.058,3.058,0,0,1,2.795-1.635,2.6,2.6,0,0,1,2.549,1.863,3.212,3.212,0,0,1,2.988-1.863q2.971,0,2.971,3.665Zm6.486.211a4.175,4.175,0,0,1-3.186-1.261,4.672,4.672,0,0,1-1.191-3.344,4.867,4.867,0,0,1,1.239-3.542,4.455,4.455,0,0,1,3.349-1.274,4.037,4.037,0,0,1,3.142,1.239,4.914,4.914,0,0,1,1.129,3.437,4.835,4.835,0,0,1-1.217,3.45A4.265,4.265,0,0,1,392.322,41.211ZM392.428,33a2.742,2.742,0,0,0-2.2.945,3.88,3.88,0,0,0-.809,2.606,3.67,3.67,0,0,0,.817,2.522,2.778,2.778,0,0,0,2.188.923,2.635,2.635,0,0,0,2.149-.905,3.928,3.928,0,0,0,.751-2.575,4,4,0,0,0-.751-2.6A2.623,2.623,0,0,0,392.428,33Zm12.814,7.585a4.684,4.684,0,0,1-2.461.624,4.074,4.074,0,0,1-3.107-1.252,4.539,4.539,0,0,1-1.182-3.248,4.99,4.99,0,0,1,1.274-3.573,4.458,4.458,0,0,1,3.4-1.349,4.735,4.735,0,0,1,2.092.439v1.477a3.665,3.665,0,0,0-2.145-.7,2.9,2.9,0,0,0-2.263.989,3.752,3.752,0,0,0-.883,2.6,3.573,3.573,0,0,0,.831,2.5,2.863,2.863,0,0,0,2.228.914,3.613,3.613,0,0,0,2.215-.782Zm2.918-10.872a.913.913,0,0,1-.659-.264.89.89,0,0,1-.272-.668.923.923,0,0,1,.932-.94.931.931,0,0,1,.672.268.939.939,0,0,1,0,1.332A.923.923,0,0,1,408.16,29.715Zm.7,11.285h-1.441V32h1.441Zm6.68.211a4.175,4.175,0,0,1-3.186-1.261,4.672,4.672,0,0,1-1.191-3.344,4.867,4.867,0,0,1,1.239-3.542,4.455,4.455,0,0,1,3.349-1.274,4.037,4.037,0,0,1,3.142,1.239,4.914,4.914,0,0,1,1.129,3.437,4.835,4.835,0,0,1-1.217,3.45A4.265,4.265,0,0,1,415.543,41.211ZM415.648,33a2.742,2.742,0,0,0-2.2.945,3.88,3.88,0,0,0-.809,2.606,3.67,3.67,0,0,0,.817,2.522,2.778,2.778,0,0,0,2.188.923,2.635,2.635,0,0,0,2.149-.905,3.928,3.928,0,0,0,.751-2.575,4,4,0,0,0-.751-2.6A2.623,2.623,0,0,0,415.648,33Zm14.15,8h-1.441V35.867q0-2.865-2.092-2.865a2.269,2.269,0,0,0-1.789.813,3.013,3.013,0,0,0-.708,2.052V41h-1.441V32h1.441v1.494h.035a3.248,3.248,0,0,1,2.953-1.705,2.753,2.753,0,0,1,2.259.954A4.248,4.248,0,0,1,429.8,35.5Zm9.158,0h-1.441V39.594h-.035a3.018,3.018,0,0,1-2.769,1.617,2.959,2.959,0,0,1-2.1-.712,2.466,2.466,0,0,1-.76-1.89q0-2.522,2.971-2.936l2.7-.378q0-2.294-1.854-2.294a4.431,4.431,0,0,0-2.936,1.107V32.633a5.577,5.577,0,0,1,3.059-.844q3.173,0,3.173,3.357Zm-1.441-4.553-2.171.3a3.525,3.525,0,0,0-1.512.5,1.432,1.432,0,0,0-.51,1.261,1.374,1.374,0,0,0,.47,1.077,1.817,1.817,0,0,0,1.252.417,2.314,2.314,0,0,0,1.771-.751,2.685,2.685,0,0,0,.7-1.9Zm5.6,4.553h-1.441V27.676h1.441Zm10.151-4.14h-6.354a3.366,3.366,0,0,0,.809,2.32,2.788,2.788,0,0,0,2.127.817,4.422,4.422,0,0,0,2.795-1V40.35a5.224,5.224,0,0,1-3.138.861,3.8,3.8,0,0,1-3-1.226,5.018,5.018,0,0,1-1.09-3.45,4.921,4.921,0,0,1,1.191-3.423,3.819,3.819,0,0,1,2.958-1.323,3.384,3.384,0,0,1,2.733,1.143,4.764,4.764,0,0,1,.967,3.173Zm-1.477-1.222a2.933,2.933,0,0,0-.6-1.942A2.051,2.051,0,0,0,449.539,33a2.328,2.328,0,0,0-1.731.729,3.31,3.31,0,0,0-.879,1.907Zm3.111,5.036V39.128a4.266,4.266,0,0,0,2.593.87q1.9,0,1.9-1.266a1.1,1.1,0,0,0-.163-.611,1.62,1.62,0,0,0-.439-.444,3.383,3.383,0,0,0-.65-.347q-.374-.154-.8-.321a10.357,10.357,0,0,1-1.05-.479,3.173,3.173,0,0,1-.756-.545,2.028,2.028,0,0,1-.457-.69,2.441,2.441,0,0,1-.154-.905,2.15,2.15,0,0,1,.29-1.121,2.572,2.572,0,0,1,.773-.817,3.607,3.607,0,0,1,1.1-.5,4.893,4.893,0,0,1,1.279-.167,5.164,5.164,0,0,1,2.092.4v1.459A4.077,4.077,0,0,0,458.17,33a2.671,2.671,0,0,0-.729.092,1.786,1.786,0,0,0-.558.259,1.2,1.2,0,0,0-.36.4,1.053,1.053,0,0,0-.127.514,1.233,1.233,0,0,0,.127.589,1.3,1.3,0,0,0,.374.422,2.855,2.855,0,0,0,.6.334q.352.149.8.325a11.131,11.131,0,0,1,1.072.47,3.678,3.678,0,0,1,.809.545,2.129,2.129,0,0,1,.514.7,2.254,2.254,0,0,1,.18.94,2.217,2.217,0,0,1-.294,1.16,2.523,2.523,0,0,1-.787.817,3.6,3.6,0,0,1-1.134.483,5.6,5.6,0,0,1-1.345.158A5.106,5.106,0,0,1,454.9,40.675Z" transform="translate(479 1094)" fill="#12263f"/>
  </g>
</svg>
